<?xml version="1.0" encoding="UTF-8" standalone="no"?>
<svg id="svg21700" xmlns:rdf="http://www.w3.org/1999/02/22-rdf-syntax-ns#" xmlns="http://www.w3.org/2000/svg" height="68" viewBox="0 0 68 68" width="68" version="1.1" xmlns:cc="http://creativecommons.org/ns#" xmlns:dc="http://purl.org/dc/elements/1.1/">
 <path id="path22250" fill="#92a646" d="m22.233 65.044c-6.034-2.135-14.583-10.307-17.934-17.142-3.8796-7.913-3.9522-19.098-.1765-27.19 8.4325-18.074 30.122-24.803 47.11-14.616 22.983 13.779 19.854 49.176-5.187 58.691-6.155 2.338-17.582 2.462-23.812.257zm24.287-3.689c6.96-3.241 14.044-11.337 16.096-18.393 8.613-29.63-27.348-51.547-49.308-30.051-15.521 15.193-9.7498 42.157 10.577 49.421 6.097 2.1788 16.855 1.7142 22.635-.97771zm-38.52-19.066c0-.78280 1.1366-2.7741 2.5258-4.425 1.5201-1.8066 2.1174-3.2542 1.5-3.6357-1.4265-.88165-1.2844-5.7981.22419-7.7557 2.325-3.0169 7.1318-2.6334 9.3458.74562 1.3674 2.087 1.4405 2.9921.43727 5.4142-1.0562 2.5499-.94762 3.1654.88112 4.9941 2.0778 2.0778 2.9883 6.7616 1.0858 5.5858-.55-.33992-1-1.1967-1-1.904 0-2.0892-3.4519-4.596-6.3287-4.596-2.9074 0-6.6713 3.103-6.6713 5.5 0 .825-.45 1.5-1 1.5s-1-.64047-1-1.4233zm11.989-9.064c1.7277-2.0817.44640-6.2399-2.1795-7.0734-4.171-1.3238-7.0411 5.29-3.3827 7.7951 1.7454 1.1951 4.24.87146 5.5622-.72170zm23.011 9.064c0-.78280 1.1366-2.7741 2.5258-4.425 1.5201-1.8066 2.1174-3.2542 1.5-3.6357-1.4265-.88165-1.2844-5.7981.22419-7.7557 2.325-3.0169 7.1318-2.6334 9.3458.74562 1.3674 2.087 1.4405 2.9921.43727 5.4142-1.0562 2.5499-.94762 3.1654.88112 4.9941 2.0778 2.0778 2.9883 6.7616 1.0858 5.5858-.55-.33992-1-1.1967-1-1.904 0-2.0892-3.4519-4.596-6.3287-4.596-2.9074 0-6.6713 3.103-6.6713 5.5 0 .825-.45 1.5-1 1.5s-1-.64047-1-1.4233zm11.989-9.064c1.7277-2.0817.44640-6.2399-2.1795-7.0734-4.171-1.3238-7.0411 5.29-3.3827 7.7951 1.7454 1.1951 4.24.87146 5.5622-.72170zm-30.344 3.0055c-.31708-.82629.32842-2.0872 1.4822-2.8954 1.9504-1.3661 1.9668-1.5493.35811-4.0045-2.6335-4.0193-2.177-9.2878 1.1013-12.71 8.1917-8.5502 21.688 3.1154 14.369 12.42l-2.0442 2.5988 2.0442 1.2766c1.9585 1.2231 2.8572 3.8339 1.2942 3.7601-.4125-.01949-1.875-.67854-3.25-1.4646-3.6287-2.0743-9.2883-1.8477-12.262.49111-2.1085 1.6585-2.6251 1.7466-3.093.52737zm13.72-7.5911c5.0315-3.9577 2.4595-11.927-3.8493-11.927-6.7154 0-9.5229 7.8834-4.3625 12.25 2.7168 2.2989 4.9928 2.2094 8.2117-.32258z"/>
</svg>
