<?xml version="1.0" encoding="UTF-8" standalone="no"?>
<svg id="svg23516" xmlns:rdf="http://www.w3.org/1999/02/22-rdf-syntax-ns#" xmlns="http://www.w3.org/2000/svg" height="68" viewBox="0 0 68 68" width="68" version="1.1" xmlns:cc="http://creativecommons.org/ns#" xmlns:dc="http://purl.org/dc/elements/1.1/">
 <path id="path24066" fill="#8da453" d="m28 67.09c-5.894-1.284-13.292-5.334-17.589-9.628-13.222-13.215-13.195-33.731.063-46.988 10.334-10.335 24.808-12.89 37.718-6.6575 12.114 5.8476 19.137 16.902 19.178 30.184.019 6.228-.461 8.507-2.835 13.438-3.576 7.43-9.554 13.482-16.597 16.804-5.972 2.816-14.496 4.034-19.938 2.848zm-19-23.901c0-.44629.91753-1.7963 2.039-3 3.0156-3.2369 7.2194-2.8586 10.413.93701 3.2671 3.8827 4.7114 2.9396 1.7117-1.1177-1.766-2.388-2.068-3.758-1.547-7.013.777-4.857-1.428-7.995-5.617-7.995-4.206 0-6.3939 3.1352-5.6098 8.0387.52021 3.2532.24037 4.6155-1.3681 6.6604-2.2155 2.817-2.5683 4.301-1.0221 4.301 0.55 0 1-.365 1-.811zm4.5962-8.4946c-2.1743-1.5899-1.8096-5.5425.65384-7.0867 3.9175-2.4557 7.9036 4.3448 4.1538 7.0867-.983.718-2.064 1.306-2.404 1.306s-1.421-.588-2.404-1.306zm38.904 3.306c1.7283 0 3.74 1.1159 5.5988 3.1058 3.3436 3.5794 4.0626 1.6404.88816-2.3952-1.7074-2.1706-1.8343-2.9516-.83559-5.1434.92504-2.0302.89351-3.1148-.14707-5.0591-3.7069-6.9264-14.406-2.0744-11.156 5.0591.99866 2.1918.87178 2.9728-.83559 5.1434-3.1744 4.0356-2.4555 5.9746.88816 2.3952 1.859-1.99 3.871-3.106 5.599-3.106zm-2.6212-3.897c-2.034-1.647-2.1658-2.1777-1.1143-4.4855 1.4928-3.2764 5.6477-3.5843 7.2773-.53933 1.3494 2.5214.72803 4.4395-1.8925 5.8419-1.525.81614-2.479.63361-4.2705-.81711zm-21.438 2.365c2.5906-1.9595 9.0254-1.8638 12.145.18046 2.954 1.9355 5.5347.52680 2.9559-1.6135-1.9456-1.6147-1.9389-2.933.03517-6.8902 4.1314-8.2816-5.3149-17.918-13.444-13.714-1.6568.85674-3.7146 2.5604-4.573 3.7859-2.0182 2.8814-1.9987 8.7128.03888 11.622 1.4661 2.0932 1.4661 2.4312 0 4.0512-3.2386 3.5786-1.0757 5.5411 2.8415 2.5782zm.63145-8.1031c-1.139-1.449-2.072-3.413-2.072-4.365s.933-2.916 2.073-4.365c3.998-5.084 11.927-2.182 11.927 4.365 0 6.5469-7.9288 9.4486-11.927 4.3651z"/>
</svg>
