<?xml version="1.0" encoding="UTF-8" standalone="no"?>
<svg id="svg24747" xmlns:rdf="http://www.w3.org/1999/02/22-rdf-syntax-ns#" xmlns="http://www.w3.org/2000/svg" height="64" viewBox="0 0 64 64" width="64" version="1.1" xmlns:cc="http://creativecommons.org/ns#" xmlns:dc="http://purl.org/dc/elements/1.1/">
 <path id="path25297" fill="#9db16c" d="m23.5 62.662c-9.398-3.114-16.781-9.599-20.682-18.162-3.1906-7.007-3.1624-17.969.0655-25.202 2.9317-6.569 11.04-14.334 17.62-16.871 6.585-2.5394 16.409-2.5394 22.994 0 6.5789 2.5371 14.688 10.302 17.619 16.871 3.2175 7.2098 3.2379 18.15.04728 25.294-2.856 6.394-10.165 13.654-16.603 16.492-6.02 2.653-15.64 3.374-21.061 1.578zm21.116-4.456c6.222-3.19 9.671-6.49 12.93-12.373 2.622-4.734 2.954-6.288 2.954-13.833s-.332-9.099-2.954-13.833c-3.231-5.832-6.618-9.0947-12.93-12.453-5.9004-3.1393-19.333-3.1393-25.233 0-9.815 5.223-15.294 13.261-16.119 23.65-1.1046 13.913 6.2323 25.332 19.439 30.254 5.3754 2.0034 16.671 1.2753 21.914-1.4125zm-16.059-7.429c-.899-1.282-1.557-4.309-1.557-7.159 0-4.619-.355-5.309-5.5-10.703-4.441-4.656-5.5-6.416-5.5-9.141 0-5.471.902-5.774 17.165-5.774 13.574 0 14.848.15599 15.8 1.9343 1.983 3.705 1.026 6.126-4.965 12.566-5.7031 6.1304-6 6.7015-6 11.541 0 2.8-.46583 5.9614-1.0352 7.0252-1.4633 2.7342-6.4099 2.5647-8.4081-.28825zm6.443-7.05c.46119-5.3084.94636-6.2533 6.25-12.172 9.061-10.111 8.059-11.555-8.016-11.555-11.522 0-15.234.867-15.234 3.56 0 .81952 2.7 4.3923 6 7.9396 5.7845 6.2179 6 6.642 6 11.808 0 5.7621.53114 6.9261 2.9512 6.4677 1.112-.211 1.69-1.919 2.049-6.049z"/>
</svg>
