<?xml version="1.0" encoding="UTF-8" standalone="no"?>
<svg id="svg25369" xmlns:rdf="http://www.w3.org/1999/02/22-rdf-syntax-ns#" xmlns="http://www.w3.org/2000/svg" height="64" viewBox="0 0 64 64" width="64" version="1.1" xmlns:cc="http://creativecommons.org/ns#" xmlns:dc="http://purl.org/dc/elements/1.1/">
 <path id="path25919" fill="#8da452" d="m24.116 61.319c-9.989-2.786-16.651-8.337-21.68-18.067-2.1658-4.19-2.6403-6.457-2.6392-12.608.00115-6.432.44330-8.3544 3.105-13.5 3.7573-7.2638 7.9842-11.451 15.284-15.141 7.8528-3.9694 18.144-3.9702 26-.0019 7.2106 3.6423 12.11 8.5101 15.579 15.479 3.972 7.9787 4.0193 18.328.11835 25.878-3.8244 7.4016-7.7657 11.514-14.412 15.038-6.9095 3.6637-14.82 4.7467-21.356 2.9237zm12.305-10.06c.40408-.61337.74158-3.2823.75-5.931.01902-5.9803.92906-7.7478 7.651-14.86 5.5121-5.8321 6.5124-8.8105 4.3291-12.89-.95625-1.7868-2.2372-1.9343-16.8-1.9343-10.928 0-16.133.36816-16.965 1.2-.66.66-1.2 2.9489-1.2 5.0866 0 3.3854.76675 4.685 5.9466 10.079 5.8744 6.1176 5.9502 6.2709 6.25 12.638.26956 5.7258.58262 6.5856 2.8034 7.6988 2.6198 1.3133 5.9864.80710 7.2347-1.0878zm-6.6089-3.1479c-.34420-.89698-.62583-3.883-.62583-6.6356 0-4.7633-.29330-5.3102-6.0802-11.337-4.5154-4.7023-5.9952-6.932-5.75-8.6634.32593-2.3012.51419-2.3351 14.463-2.6083 12.195-.23880 14.217-.05746 14.746 1.3224.88250 2.2997-.87868 5.2044-6.9451 11.454-5.1092 5.2637-5.3513 5.7574-5.6363 11.49-.22766 4.5804-0.68 6.063-1.9219 6.2991-.89330.16984-1.9058-.42509-2.25-1.3221z"/>
</svg>
