<?xml version="1.0" encoding="UTF-8" standalone="no"?>
<svg id="svg27868" xmlns:rdf="http://www.w3.org/1999/02/22-rdf-syntax-ns#" xmlns="http://www.w3.org/2000/svg" height="64" viewBox="0 0 64 64" width="64" version="1.1" xmlns:cc="http://creativecommons.org/ns#" xmlns:dc="http://purl.org/dc/elements/1.1/">
 <path id="path28420" d="m25.383 63.11c-10.308-2.655-19.844-11.096-23.034-20.39-5.4434-15.862 1.5166-32.418 16.651-39.607 8.0195-3.8097 19.203-3.741 27.161.16698 6.525 3.2043 12.143 8.9719 15.192 15.598 1.6423 3.5681 2.1266 6.5611 2.1233 13.122-.0037 7.3194-.38426 9.2246-2.7401 13.717-3.5865 6.8385-8.8466 11.987-15.235 14.912-5.6292 2.5771-15.174 3.7543-20.118 2.4812zm9.3972-26.36.27988-12.75h-3.5299-3.5299v12.333c0 6.7833.32066 12.654.71258 13.046.39192.39192 1.8544.57942 3.25.41667l2.537-.296.27988-12.75zm-1.362-16.357c2.1256-.81568 2.0807-5.9876-.05909-6.8087-4.2977-1.6492-8.3425 3.4923-4.7905 6.0895 2.0448 1.4952 2.6093 1.5789 4.8496.71921z" fill="#f9bd05"/>
</svg>
