<?xml version="1.0" encoding="UTF-8" standalone="no"?>
<svg id="svg27240" xmlns:rdf="http://www.w3.org/1999/02/22-rdf-syntax-ns#" xmlns="http://www.w3.org/2000/svg" height="64" viewBox="0 0 64 64" width="64" version="1.1" xmlns:cc="http://creativecommons.org/ns#" xmlns:dc="http://purl.org/dc/elements/1.1/">
 <path id="path27792" d="m24.463 62.641c-14.314-3.373-24.137-15.75-24.135-30.412.0004735-3.85.55997-8.9191 1.2433-11.265 1.8661-6.4053 8.7479-14.205 15.645-17.733 5.1825-2.6504 6.8767-3.0015 14.442-2.9929 6.7925.0077 9.6081.48448 13.571 2.2978 22.138 10.131 24.904 41.498 4.874 55.279-7.29 5.016-17.042 6.851-25.64 4.826zm17.471-4.466c15.151-5.163 22.956-24.691 15.566-38.946-7.446-14.362-23.947-20.052-38.085-13.135-21.578 10.557-20.788 41.574 1.314 51.558 5.5086 2.4884 14.766 2.7164 21.205.5224zm-12.539-9.113c-.36667-.36667-.66667-5.9435-.66667-12.393 0-9.907.25239-11.823 1.6267-12.351 3.4759-1.3338 4.3733 1.1967 4.3733 12.333 0 6.9714-.41651 11.094-1.2 11.878-1.3277 1.3277-3.1091 1.5576-4.1333.53333zm-.0081-30.818c-1.783-1.783-1.2806-4.063 1.0963-4.9751 2.3789-.91287 4.9868 2.0601 3.6567 4.1687-1.4981 2.3749-2.9399 2.6196-4.753.80646z" fill="#face46"/>
</svg>
