<?xml version="1.0" encoding="UTF-8" standalone="no"?>
<svg id="svg32808" xmlns:rdf="http://www.w3.org/1999/02/22-rdf-syntax-ns#" xmlns="http://www.w3.org/2000/svg" height="64" viewBox="0 0 64 64" width="64" version="1.1" xmlns:cc="http://creativecommons.org/ns#" xmlns:dc="http://purl.org/dc/elements/1.1/">
 <path id="path33358" fill="#92a646" d="m22.3 62.199c-10.863-3.881-17.786-11.181-20.961-22.104-2.9701-10.218.3284-22.475 8.2038-30.484 12.032-12.238 32.728-12.273 44.924-.0777 9.118 9.1177 11.803 24.018 6.407 35.553-6.85 14.643-24.086 22.29-38.574 17.113zm22.317-3.9933c6.2218-3.1896 9.6708-6.4902 12.93-12.373 2.621-4.734 2.953-6.288 2.953-13.833s-.332-9.099-2.954-13.833c-3.231-5.832-6.618-9.0947-12.93-12.453-5.9004-3.1393-19.333-3.1393-25.233 0-9.815 5.223-15.294 13.261-16.119 23.65-1.1046 13.913 6.2323 25.332 19.439 30.254 5.3754 2.0034 16.671 1.2753 21.914-1.4125zm-32.617-11.368c0-3.161 4.4267-10.193 7.4275-11.799l2.5932-1.3878-2.154-2.2928c-1.374-1.463-2.322-4.041-2.618-7.121-.399-4.154-.090-5.273 2.217-8.014 7.566-8.9923 21.034-4.347 21.034 7.254 0 2.5502-0.784 5.1415-2.1036 6.9531l-2.1036 2.8878 3.2887 2.8875c3.189 2.801 7.324 11.224 6.107 12.441-1.203 1.203-3.688-.638-3.688-2.732 0-1.182-1.7471-3.8961-3.8824-6.0314-3.4482-3.4482-4.4267-3.8819-8.75-3.8786-6.0339.0046-10.446 2.5339-12.698 7.2793-.919 1.936-1.67 4.014-1.67 4.618 0 .605-.675 1.099-1.5 1.099-.871 0-1.5-.907-1.5-2.162zm22.545-17.293c5.335-5.334 1.592-14.545-5.911-14.545-4.7614 0-9.0814 4.9546-8.224 9.432 1.319 6.8878 9.4275 9.8211 14.135 5.1134zm13.271 5.705c-.25040-2.1762-.90259-2.8172-3.1257-3.0721-3.3905-.38880-3.066-2.6253.38539-2.6562 1.8942-.01695 2.493-.62261 2.7403-2.7717.18891-1.6418.92297-2.75 1.8216-2.75 1.0533 0 1.4086.82562 1.1836 2.75-.27216 2.3275.05082 2.7533 2.1023 2.7717 3.4514.03089 3.7759 2.2674.38539 2.6562-2.4157.27701-2.7642.70742-2.4877 3.0721.22502 1.9244-.13032 2.75-1.1836 2.75-.89860 0-1.6327-1.1082-1.8216-2.75z"/>
</svg>
