<?xml version="1.0" encoding="UTF-8" standalone="no"?>
<svg id="svg30338" xmlns:rdf="http://www.w3.org/1999/02/22-rdf-syntax-ns#" xmlns="http://www.w3.org/2000/svg" height="64" viewBox="0 0 64 64" width="64" version="1.1" xmlns:cc="http://creativecommons.org/ns#" xmlns:dc="http://purl.org/dc/elements/1.1/">
 <path id="path30888" fill="#8da553" d="m20.593 62.679c-5.932-2.255-13.604-9.327-16.891-15.569-2.3711-4.502-2.6904-6.233-2.6947-14.607-.0044-8.667.2556-9.971 2.9615-14.856 6.4082-11.569 17.418-17.665 30.534-16.906 12.574.72785 22.09 7.2359 27.431 18.762 3.0995 6.6876 3.475 16.971.89722 24.572-2.2974 6.7739-11.983 16.459-18.757 18.757-6.3001 2.1367-17.654 2.0631-23.481-.15225zm22.851-2.904c5.907-2.107 12.817-8.609 15.7-14.772 3.414-7.3 3.317-18.184-.225-25.293-5.393-10.821-15.886-16.771-28.25-16.017-15.306.9326-26.09 11.711-26.99 26.976-1.2976 22.019 18.668 36.633 39.765 29.106zm-23.796-18.713c-5.5987-5.9198-5.915-6.6759-3.5977-8.5992 1.3112-1.0882 2.1999-.64379 5.8232 2.9122l4.2759 4.1964 10.397-10.566c9.9096-10.07 13.047-11.988 13.739-8.3961.34221 1.777-22.232 25.892-24.237 25.892-.69005 0-3.5699-2.4481-6.3997-5.4401z"/>
</svg>
