<?xml version="1.0" encoding="UTF-8" standalone="no"?>
<svg id="svg32162" xmlns:rdf="http://www.w3.org/1999/02/22-rdf-syntax-ns#" xmlns="http://www.w3.org/2000/svg" height="64" viewBox="0 0 64 64" width="64" version="1.1" xmlns:cc="http://creativecommons.org/ns#" xmlns:dc="http://purl.org/dc/elements/1.1/">
 <path id="path32712" fill="#bd3133" d="m24.876 62.695c-9.621-1.983-19.593-10.863-22.793-20.296-5.2265-15.404 1.7374-32.165 16.33-39.304 7.256-3.5503 18.296-3.8328 25.438-.6508 13.724 6.1139 21.936 21.303 18.943 35.035-3.106 14.245-14.114 24.285-28.065 25.597-3.025.28432-7.459.11315-9.8532-.38038zm18.528-4.936c22.39-9.88 22.348-42.223-.068-52.174-6.982-3.0996-16.295-3.1088-23.107-.0227-10.658 4.8287-16.903 14.486-16.922 26.167-.0328 20.944 20.871 34.515 40.097 26.03zm-26.675-11.809c0-.42839 2.9259-3.6787 6.5019-7.223l6.502-6.444-6.624-6.675c-4.1372-4.1692-6.3446-7.1271-5.8798-7.879.50038-.80964 2.9968 1.0315 7.622 5.6212l6.8779 6.8252 6.8779-6.8252c4.6252-4.5897 7.1216-6.4309 7.622-5.6212.46476.75199-1.7426 3.7099-5.8798 7.879l-6.6239 6.6751 6.5019 6.4441c3.576 3.5443 6.5019 6.7946 6.5019 7.223 0 2.0922-3.0258.20440-8.7231-5.4422l-6.2769-6.2211-6.2769 6.2211c-5.6973 5.6466-8.7231 7.5344-8.7231 5.4422z"/>
</svg>
