<?xml version="1.0" encoding="UTF-8" standalone="no"?>
<svg id="svg34053" xmlns:rdf="http://www.w3.org/1999/02/22-rdf-syntax-ns#" xmlns="http://www.w3.org/2000/svg" height="64" viewBox="0 0 64 64" width="64" version="1.1" xmlns:cc="http://creativecommons.org/ns#" xmlns:dc="http://purl.org/dc/elements/1.1/">
 <path id="path34603" fill="#8aa24f" d="m23.828 62.612c-15.53-5.085-24.08-17.335-23.071-33.058 1.8052-28.125 36.091-39.692 55.072-18.58 6.012 6.686 8.034 12.81 7.544 22.844-.605 12.398-7.358 22.431-18.379 27.306-5.791 2.562-15.747 3.262-21.166 1.488zm-8.286-15.162c0-5.5932 6.9013-11.443 13.5-11.443s13.5 5.8497 13.5 11.443c0 1.5755 2.4983 2.1704 3.3471.79704 1.0715-1.7338-2.5103-8.9804-5.9061-11.949l-3.6623-3.2016 2.1106-2.6832c2.4983-3.176 2.7938-9.1918.65469-13.328-1.457-2.818-6.85-6.085-10.044-6.085-3.1938 0-8.5869 3.2675-10.044 6.0852-2.1561 4.1694-1.8439 10.152.69834 13.384l2.1543 2.7387-3.1741 2.4841c-5.292 4.143-8.484 13.308-4.634 13.308.825 0 1.5-.69735 1.5-1.5497zm7.923-18.373c-3.2576-3.2576-3.63-5.8093-1.4601-10.005 4.8062-9.2941 18.606-1.8955 14.583 7.8182-2.2996 5.5517-8.6925 6.6173-13.123 2.1872zm27.261 6.173c.25040-2.1762.90259-2.8172 3.1257-3.0721 3.4899-.40019 3.0308-2.5601-.63640-2.9943-2.0783-.24603-2.6729-.85780-2.6729-2.75 0-1.4965-.57758-2.4336-1.5-2.4336-.92189 0-1.5.93672-1.5 2.4304 0 1.7297-.62611 2.5226-2.1717 2.75-3.202.472-3.545 2.82-.412 2.82 2.2037 0 2.5833.44086 2.5833 3 0 3.8802 2.7411 4.0954 3.1836.25z"/>
</svg>
