<?xml version="1.0" encoding="UTF-8" standalone="no"?>
<svg
   xmlns:dc="http://purl.org/dc/elements/1.1/"
   xmlns:cc="http://creativecommons.org/ns#"
   xmlns:rdf="http://www.w3.org/1999/02/22-rdf-syntax-ns#"
   xmlns:svg="http://www.w3.org/2000/svg"
   xmlns="http://www.w3.org/2000/svg"
   xmlns:sodipodi="http://sodipodi.sourceforge.net/DTD/sodipodi-0.dtd"
   xmlns:inkscape="http://www.inkscape.org/namespaces/inkscape"
   id="svg4250"
   height="64"
   viewBox="0 0 64 64"
   width="64"
   version="1.1"
   inkscape:version="0.91 r13725"
   sodipodi:docname="schedulecallhover.svg">
  <defs
     id="defs4191" />
  <sodipodi:namedview
     pagecolor="#ffffff"
     bordercolor="#666666"
     borderopacity="1"
     objecttolerance="10"
     gridtolerance="10"
     guidetolerance="10"
     inkscape:pageopacity="0"
     inkscape:pageshadow="2"
     inkscape:window-width="1191"
     inkscape:window-height="617"
     id="namedview4189"
     showgrid="false"
     inkscape:zoom="3.6875"
     inkscape:cx="-4.0677966"
     inkscape:cy="32"
     inkscape:window-x="0"
     inkscape:window-y="0"
     inkscape:window-maximized="0"
     inkscape:current-layer="svg4250" />
  <metadata
     id="metadata4327">
    <rdf:RDF>
      <cc:Work
         rdf:about="">
        <dc:format>image/svg+xml</dc:format>
        <dc:type
           rdf:resource="http://purl.org/dc/dcmitype/StillImage" />
      </cc:Work>
    </rdf:RDF>
  </metadata>
  <ellipse
     style="fill:#f6be00;fill-opacity:1;stroke:none;stroke-opacity:1"
     id="path4869"
     cx="32.782738"
     cy="34.711864"
     rx="28.986134"
     ry="28.474577" />
  <path
     id="path4806"
     d="m22.052 62.936c-7.506-3.032-12.359-7.521-15.895-14.703-1.7512-3.557-3.3834-8.594-3.627-11.193-1.3434-14.333 14.034-31.226 28.423-31.226 1.8592 0 2.3185-.54150 2.3185-2.7333v-2.7333l3.6307 3.6307 3.6307 3.6307-3.3807 3.0347-3.3807 3.0347-.31642-2.432c-.377-2.8896-1.817-3.0288-9.063-.877-13.56 4.027-21.246 19.284-16.946 33.637 1.4949 4.989 7.857 12.252 13.196 15.066 5.5979 2.9498 17.386 3.1055 23.032.30430 7.9347-3.9369 14.526-13.124 14.575-20.313.01757-2.6002.43091-3.25 2.0673-3.25 1.8095 0 1.9722.43240 1.4115 3.75-1.6191 9.5805-7.7609 17.802-16.735 22.402-5.964 3.0571-16.657 3.5096-22.942.97092zm13.719-14.192c-9.9529-6.3402-19.5-16.816-19.5-21.396 0-2.6455 3.5487-7.5344 5.469-7.5344 1.7137 0 7.531 6.617 7.531 8.5662 0 .82312-.675 1.7556-1.5 2.0722-3.3303 1.278-.18514 6.9009 6.2003 11.085 2.5094 1.6442 2.6559 1.6259 4.0733-.50882 1.9901-2.9972 4.0766-2.7865 8.4985.85841 4.1776 3.4436 4.5534 4.8701 1.9122 7.2603-3.4977 3.1654-7.2711 3.0455-12.684-.40284z"
     fill="#ffffff" />
  <path
     id="path4804"
     d="m26.006 63.773c-12.436-3.087-21.33-13.34-22.457-25.887-1.4425-16.069 10.394-30.043 26.472-31.253 2.6703-.20102 3.25-.66175 3.25-2.5828v-2.3382l3.5424 2.7019 3.5424 2.7019-2.7295 2.849c-3.3188 3.4641-4.3553 3.5827-4.3553.49832 0-2.2645-.18620-2.3212-5.0812-1.5474-13.199 2.0863-22.257 12.795-22.329 26.398-.043337 8.1574 3.0361 15.318 8.6113 20.024 11.424 9.643 28.621 8.5109 38.05-2.5049 3.504-4.0937 6.7487-11.4 6.7487-15.198 0-1.002.45-1.8219 1-1.8219 1.4727 0 1.2184 4.0029-.59203 9.3161-2.1353 6.2667-9.1595 13.901-15.169 16.486-5.8772 2.5283-13.452 3.4115-18.504 2.1575zm9.177-15.801c-10.776-6.833-17.912-15.243-17.912-21.108 0-6.901 4.8064-8.1724 9.3531-2.4741l2.8531 3.5758-2.0739 2.2076c-2.0395 2.171-2.0431 2.2583-.21590 5.2629 3.541 5.8228 11.084 9.8014 11.084 5.8465 0-3.7655 5.0359-2.4327 10.157 2.6881l2.023 2.023-2.2642 2.4101c-3.053 3.2498-7.4288 3.1047-13.004-.43111z"
     fill="#ffffff" />
  <path
     id="path4802"
     d="m19.352 60.696c-9.8466-4.92-15.219-13.611-15.382-24.882-.2105-14.536 10.45-27.171 24.048-28.504 4.648-.4553 4.676-.4418 1.253.6143-11.49 3.5457-17.928 8.4197-21.647 16.39-6.7478 14.459 1.6525 32.538 17.222 37.064 15.573 4.5273 32.057-5.9433 34.171-21.707.28463-2.1221.95834-3.8583 1.4971-3.8583 1.507 0-.0263 6.8301-2.8564 12.724-6.6968 13.947-23.838 19.388-38.306 12.158zm17.694-11.938c-4.715-2.489-16.447-13.409-18.34-17.07-1.9506-3.7721-1.8029-7.2311.39384-9.2191 2.5649-2.3212 3.6257-2.0921 6.5824 1.4217 3.0135 3.5813 3.192 4.7618.96634 6.3892-2.1486 1.5711-1.1368 4.6208 2.8587 8.6164 4.6585 4.6585 6.8627 5.1917 9.2724 2.2431l2.0086-2.4578 4.2414 3.0724c4.7742 3.4584 5.253 5.2379 2.0189 7.5032-2.9043 2.0342-5.4457 1.9075-10.003-.49883zm-3.775-41.257c0-3.1279.14081-5.6871.31291-5.6871s1.5239 1.264 3.0041 2.809l2.6912 2.809-3.0041 2.8781-3.0041 2.8781v-5.6871z"
     fill="#ffffff" />
</svg>
