<?xml version="1.0" encoding="UTF-8" standalone="no"?>
<svg id="svg4878" xmlns:rdf="http://www.w3.org/1999/02/22-rdf-syntax-ns#" xmlns="http://www.w3.org/2000/svg" height="80" viewBox="0 0 80 80" width="80" version="1.1" xmlns:cc="http://creativecommons.org/ns#" xmlns:dc="http://purl.org/dc/elements/1.1/">
 <path id="path5430" d="m30.339 78.905c-11.822-3.89-21.033-11.895-26.069-22.655-4.334-9.26-4.4916-22.713-.3736-31.875 3.663-8.15 12.715-17.261 20.703-20.837 9.255-4.1437 23.999-4.0775 32.582.14640 7.9301 3.9023 15.571 11.543 19.473 19.473 4.1691 8.4722 4.3514 24.608.37564 33.245-6.4315 13.973-19.103 22.445-34.6 23.133-4.9313.21885-10.372-.0648-12.091-.63039zm8.1469-24.892c20.749.06677 32.095-12.783 21.72-24.598-9.8854-11.259-34.888-9.9647-42.465 2.1981-2.8396 4.558-2.475 9.2134 1.1301 14.43 1.6033 2.3198 2.024 4.2818 1.3848 6.4573-2.1819 7.4262-1.6467 8.0185 4.167 4.6114 4.332-2.5387 6.9745-3.1209 14.063-3.0981z" fill="#d27526"/>
</svg>
