<?xml version="1.0" encoding="UTF-8" standalone="no"?>
<svg id="svg4187" xmlns:rdf="http://www.w3.org/1999/02/22-rdf-syntax-ns#" xmlns="http://www.w3.org/2000/svg" height="80" viewBox="0 0 80 80" width="80" version="1.1" xmlns:cc="http://creativecommons.org/ns#" xmlns:dc="http://purl.org/dc/elements/1.1/">
 <path id="path4199" d="m30.625 79.433c-11.526-3.045-21.598-11.555-26.681-22.543-4.2621-9.213-4.5021-22.84-.5562-31.578 3.7163-8.229 11.92-16.636 20.178-20.676 5.8117-2.8434 8.6868-3.4418 16.427-3.4189 15.772.04668 28.504 7.9209 35.903 22.205 2.8592 5.5194 3.3647 8.0653 3.397 17.109.03147 8.8068-.48795 11.695-3.0353 16.875-3.9564 8.0461-11.488 15.532-19.383 19.265-6.7071 3.1719-19.572 4.5248-26.25 2.7605zm25.146-6.1435c12.424-6.37 19.221-16.53 20.158-30.134.824-11.945-2.67-20.537-11.711-28.8-33.688-30.789-81.18 16.709-50.391 50.398 8.304 9.085 15.881 12.222 28.048 11.612 5.7235-.28705 10.53-1.3512 13.896-3.0767zm-35.289-19.884c1.4709-4.2487 1.356-4.9878-1.4092-9.0625-3.8682-5.7001-3.059-10.558 2.6446-15.875 15.168-14.141 48.802-2.1532 40.267 14.352-3.3969 6.5689-9.9286 9.5231-21.775 9.8486-7.9273.21777-11.396.89248-14.523 2.8247-6.0522 3.7404-7.08 3.3283-5.2051-2.0874z" fill="#d37628"/>
</svg>
