<?xml version="1.0" encoding="UTF-8" standalone="no"?>
<svg id="svg5506" xmlns:rdf="http://www.w3.org/1999/02/22-rdf-syntax-ns#" xmlns="http://www.w3.org/2000/svg" height="64" viewBox="0 0 64 64" width="64" version="1.1" xmlns:cc="http://creativecommons.org/ns#" xmlns:dc="http://purl.org/dc/elements/1.1/">
 <path id="path6058" d="m24.268 63.046c-6.569-2.177-9.881-4.267-14.217-8.971-5.1409-5.577-6.742-8.675-8.2395-15.941-2.8684-13.918 4.983-28.78 18.456-34.936 7.2218-3.2995 19.042-3.2123 26 .19170 6.3614 3.1124 12.424 9.162 15.552 15.52 3.515 7.1429 3.515 19.805 0 26.948-3.1552 6.4119-9.2421 12.454-15.552 15.438-6.0447 2.8586-16.212 3.667-22 1.7492zm21.116-4.4556c6.2218-3.1896 9.6708-6.4901 12.93-12.373 2.622-4.7335 2.954-6.2879 2.954-13.833 0-7.5448-.33195-9.0993-2.954-13.833-4.987-9.0033-12.891-14.104-23.129-14.926-21.56-1.7302-37.299 20.667-28.486 40.539 2.7705 6.2473 10.222 13.371 16.344 15.627 5.8634 2.1601 16.948 1.5645 22.342-1.2005zm-7.897-13.616c-13.283-7.999-21.719-17.445-21.719-24.319 0-7.7964 5.9563-9.6392 10.916-3.3771 3.6329 4.5869 3.7228 5.218 1.084 7.6061-1.1.99549-2 2.1889-2 2.6521 0 1.5195 7.2844 8.9436 10.311 10.509 2.8597 1.4788 3.0379 1.4349 5.2033-1.2808 1.9559-2.4529 2.5486-2.6724 4.6412-1.719 3.5502 1.6176 8.8448 6.3199 8.8448 7.8554 0 2.2062-5.0466 5.4837-8.4437 5.4837-1.8377 0-5.5583-1.4358-8.8375-3.4104z" fill="#8ca452"/>
</svg>
