<?xml version="1.0" encoding="UTF-8" standalone="no"?>
<svg id="svg6134" xmlns:rdf="http://www.w3.org/1999/02/22-rdf-syntax-ns#" xmlns="http://www.w3.org/2000/svg" height="64" viewBox="0 0 64 64" width="64" version="1.1" xmlns:cc="http://creativecommons.org/ns#" xmlns:dc="http://purl.org/dc/elements/1.1/">
 <path id="path6686" d="m27.599 63.188c-6.652-1.046-13.252-4.615-17.941-9.702-5.964-6.4702-8.2218-12.254-8.2884-21.233-.04865-6.563.36793-8.3793 3.2781-14.293 11.633-23.639 44.699-23.639 56.332 0 2.9102 5.9137 3.3268 7.73 3.2781 14.293-.14688 19.816-16.989 34.028-36.659 30.936zm23.235-15.427c1.6064-.83069 3.4244-2.4515 4.04-3.6017 0.941-1.7583.69488-2.5344-1.5452-4.8725-1.4655-1.5296-4.1713-3.5926-6.0129-4.5844-2.79-1.5025-3.6114-1.585-4.9252-.49472-.86718.71970-1.5767 1.9284-1.5767 2.6861 0 4.4658-11.259-2.3542-14.621-8.857-1.5116-2.9232-1.4739-3.1219 1.0353-5.4485 2.936-2.7224 2.691-3.6927-2.2894-9.067-1.6565-1.7875-3.9045-3.25-4.9956-3.25-2.7842 0-6.129 4.6523-6.129 8.5249 0 6.4504 11.575 19.15 24.605 26.996 6.4448 3.8809 8.1832 4.1565 12.415 1.9683z" fill="#8aa24f"/>
</svg>
