<?xml version="1.0" encoding="UTF-8" standalone="no"?>
<svg id="svg4261" xmlns:rdf="http://www.w3.org/1999/02/22-rdf-syntax-ns#" xmlns="http://www.w3.org/2000/svg" height="256" viewBox="0 0 256 256" width="256" version="1.1" xmlns:cc="http://creativecommons.org/ns#" xmlns:dc="http://purl.org/dc/elements/1.1/">
 <g id="g4811" transform="translate(2.1695 1.0847)">
  <path id="path4815" fill="#fdfdfd" d="m0 128v-128h128 128v128 128h-128-128v-128z"/>
  <path id="path4813" fill="#989898" d="m0 143.5v-110.5h23.5 23.5v12.5 12.5h-11-11v85.5 85.5h102.5 102.5v-85.5-85.5h-16-16v13.777c0 15.164-.54141 16.9-6.1822 19.817-4.2128 2.1786-9.0457 1.112-12.258-2.7049l-2.56-3.042v-38.524-38.523l3.4-3.4c4.7304-4.7304 9.4696-4.7304 14.2 0l3.4 3.4v12.1 12.1h28.5 28.5v110.5 110.5h-127.5-127.5v-110.5zm51 54.5v-11h17 17v11 11h-17-17v-11zm60-.0242v-11.024l16.75.27418 16.75.27418.28383 10.75.28383 10.75h-17.034-17.034v-11.024zm60 .0242v-11h16.5 16.5v11 11h-16.5-16.5v-11zm-120-38.5v-10.5h17 17v10.5 10.5h-17-17v-10.5zm60 0v-10.5h17 17v10.5 10.5h-17-17v-10.5zm60 0v-10.5h16.5 16.5v10.5 10.5h-16.5-16.5v-10.5zm-120-39v-10.5h17 17v10.5 10.5h-17-17v-10.5zm60 0v-10.5h17 17v10.5 10.5h-17-17v-10.5zm60 0v-10.5h16.5 16.5v10.5 10.5h-16.5-16.5v-10.5zm-107.58-28.919c-6.172-2.687-6.421-4.394-6.421-44.014 0-39.995.183-41.256 6.432-44.236 4.997-2.3827 10.23-.9774 13.284 3.5669 2.045 3.0421 2.284 4.5861 2.284 14.75v11.352h13.5 13.5v12.5 12.5h-13.5-13.5v12.532c0 14.969-1.1754 18.808-6.4319 21.004-4.2291 1.767-5.1817 1.7717-9.1471.04503zm58.999-.41493c-5.4035-3.3855-5.5167-4.3719-5.2057-45.379l.29-37.628 2.4099-2.5642c4.5246-4.8142 13.08-4.3119 16.541.97116 1.18 1.8033 1.55 5.217 1.55 14.399v12.035h14 14v12.472 12.472l-13.75.278-13.75.278-.50 14.231c-.47813 13.609-.6117 14.343-3.0538 16.781-3.4599 3.4546-8.5741 4.1299-12.526 1.6539z"/>
 </g>
</svg>
