<?xml version="1.0" encoding="UTF-8" standalone="no"?>
<!-- Created with Inkscape (http://www.inkscape.org/) -->
<svg id="svg4280" xmlns:rdf="http://www.w3.org/1999/02/22-rdf-syntax-ns#" xmlns="http://www.w3.org/2000/svg" height="256" viewBox="0 0 256 256" width="256" version="1.1" xmlns:cc="http://creativecommons.org/ns#" xmlns:dc="http://purl.org/dc/elements/1.1/">
 <metadata id="metadata4286">
  <rdf:RDF>
   <cc:Work rdf:about="">
    <dc:format>image/svg+xml</dc:format>
    <dc:type rdf:resource="http://purl.org/dc/dcmitype/StillImage"/>
    <dc:title/>
   </cc:Work>
  </rdf:RDF>
 </metadata>
 <path id="path4832" d="m16.598 237.16c-.28575-.46235 2.857-14 6.9838-30.083l7.5033-29.242-6.6481-7.0473c-16.274-17.26-24.218-36.04-23.165-54.79 2.6669-47.454 58.851-84.984 127.23-84.984 86.921 0 148.2 59.155 120.66 116.48-12.92 26.9-44.802 48.49-83.405 56.479-26.29 5.44-48.31 5.14-77.76-1.05l-5.5-1.156-31.737 18.111c-17.455 9.97-32.166 18.12-32.691 18.12-.52464 0-1.1877-.37828-1.4734-.84063z" fill="#d37628"/>
</svg>
