<?xml version="1.0" encoding="UTF-8" standalone="no"?>
<svg id="svg4887" xmlns:rdf="http://www.w3.org/1999/02/22-rdf-syntax-ns#" xmlns="http://www.w3.org/2000/svg" height="256" viewBox="0 0 256 256" width="256" version="1.1" xmlns:cc="http://creativecommons.org/ns#" xmlns:dc="http://purl.org/dc/elements/1.1/">
 <g id="g5437" transform="translate(1.0847 2.1695)">
  <path id="path5441" fill="#fefefe" d="m0 128v-128h128 128v128 128h-128-128v-128z"/>
  <path id="path5439" fill="#989898" d="m6 141.98v-114.02l22.25.271 22.25.269.282 11.75.281 11.75h-10.531-10.532v90 90h98 98v-90-90h-15.5-15.5v13.077 13.077l-2.9231 2.9231c-4.1162 4.1162-10.038 4.1162-14.154 0l-2.93-2.923v-36.623-36.622l2.45-2.4545c1.97-1.9634 3.48-2.4545 7.55-2.4545 4.2232 0 5.5121.45199 7.5455 2.646 2.3 2.4857 2.45 3.3341 2.45 14v11.354h27.5 27.5v114 114h-122-122v-114.02zm83.727 51.27c-7.12-7.01-16.496-16.68-20.836-21.49-7.086-7.85-7.891-9.15-7.891-12.75 0-3.1982.72933-4.8129 3.6182-8.0106 4.0273-4.4577 8.3757-6.0931 12.867-4.8391 1.8749.5235 8.2008 6.0399 17.009 14.832l14.024 13.999 34.491-34.562c18.97-19.009 35.706-35.208 37.191-35.996 1.4852-.78896 4.3569-1.4345 6.3816-1.4345 3.0132 0 4.474.79275 8.0497 4.3684 4.795 4.795 5.5893 8.4258 2.9382 13.431-.78664 1.4852-20.037 21.263-42.778 43.95l-41.348 41.25h-5.386-5.386l-12.945-12.75zm-25.804-112.17-2.923-2.923v-36.431-36.431l2.452-2.646c2.034-2.194 3.323-2.646 7.546-2.646 4.074 0 5.584.49105 7.547 2.4545 2.322 2.3219 2.455 3.077 2.455 13.972v11.516l13.25.279 13.25.279.28 11.75.28 11.75h-13.528-13.532v13.077 13.077l-2.9231 2.9231c-4.1162 4.1162-10.038 4.1162-14.154 0zm57 0l-2.92-2.923v-36.431-36.431l2.4522-2.646c2.04-2.194 3.32-2.646 7.55-2.646 4.0743 0 5.5842.49105 7.5477 2.4545 2.32 2.3219 2.45 3.077 2.45 13.972v11.516l13.25.27902 13.25.279.28 11.75.28 11.75h-13.53-13.53v13.077 13.077l-2.9231 2.9231c-4.1162 4.1162-10.038 4.1162-14.154 0z"/>
 </g>
</svg>
