<?xml version="1.0" encoding="UTF-8" standalone="no"?>
<svg id="svg5521" xmlns:rdf="http://www.w3.org/1999/02/22-rdf-syntax-ns#" xmlns="http://www.w3.org/2000/svg" height="256" viewBox="0 0 256 256" width="256" version="1.1" xmlns:cc="http://creativecommons.org/ns#" xmlns:dc="http://purl.org/dc/elements/1.1/">
 <path id="path6075" d="m1.0847 129.08v-128h128 128v128 128h-128-128v-128z" fill="#fefefe"/>
 <path id="path6073" d="m110.58 255.68c-27.889-4.68-51.269-16.46-70.388-35.48-39.472-39.27-49.254-98.06-24.521-147.39 12.657-25.248 31.853-44.465 57.089-57.156 18.952-9.5311 34.18-13.019 56.82-13.019 22.648 0 37.873 3.4882 56.825 13.019 25.236 12.691 44.432 31.908 57.089 57.152 14.067 28.056 17.225 59.514 9.0323 89.958-12.51 46.484-50.16 81.792-97.946 91.853-10.635 2.2391-33.656 2.7935-44 1.0596zm43.477-30.188c34.737-8.8081 62.415-36.59 71.636-71.903 2.2142-8.4801 2.611-12.128 2.611-24s-.39685-15.52-2.611-24c-7.3704-28.228-26.365-51.75-52.112-64.536-15.096-7.4962-26.72-10.188-44-10.188-11.879 0-15.511.39560-23.977 2.6115-35.55 9.3057-62.867 36.614-72.136 72.112-2.2141 8.4801-2.611 12.128-2.611 24 0 11.879.39560 15.511 2.6115 23.977 7.439 28.419 26.51 52.044 52.112 64.556 22.246 10.872 45.008 13.322 68.477 7.371zm-29.477-72.597c-4.2703-2.4184-49.095-36.143-50.728-38.166-1.0295-1.2755-1.7368-3.8895-1.75-6.4676-.03052-5.94 4.0465-10.173 9.7981-10.173 3.5588 0 6.1673 1.6201 24.957 15.5 11.541 8.525 21.45 15.5 22.021 15.5.57083 0 12.437-11.738 26.37-26.085s26.547-26.722 28.032-27.5c4.6426-2.4329 8.6182-1.7965 12.4 1.9849 2.6052 2.6052 3.4 4.2401 3.4 6.9937 0 4.6704-5.461 10.846-39.224 44.356-24.636 24.452-25.564 25.249-29.358 25.22-2.155-.0167-4.8181-.54011-5.9181-1.1631z" fill="#989898"/>
</svg>
