<?xml version="1.0" encoding="UTF-8" standalone="no"?>
<svg id="svg6149" xmlns:rdf="http://www.w3.org/1999/02/22-rdf-syntax-ns#" xmlns="http://www.w3.org/2000/svg" height="80" viewBox="0 0 80 80" width="80" version="1.1" xmlns:cc="http://creativecommons.org/ns#" xmlns:dc="http://purl.org/dc/elements/1.1/">
 <path id="path6701" d="m26.61 74.863c-7.559-3.108-12.158-6.826-16.824-13.604-13.902-20.197-4.1935-48.649 19.086-55.932 18.744-5.8636 37.511 2.4639 45.658 20.26 8.7486 19.109-1.0162 42.184-21.019 49.668-7.9962 2.9918-19.063 2.8305-26.902-.39195zm27.663-11.578c5.4743-1.5203 7.7422-4.4127 7.7501-9.8842.0041-2.8688.74384-5.6746 1.9934-7.5614 2.4856-3.7532 2.5425-7.5271.16005-10.615-1.012-1.3117-2.3455-3.8673-2.9634-5.6791-1.7296-5.0716-4.919-8.9631-9.512-11.606-12.304-7.0797-26.338-2.1808-32.659 11.4-1.1518 2.475-2.7472 5.625-3.5454 7-.79817 1.375-1.4562 3.175-1.4622 4-.01849 2.5212 3.6528 7.6808 5.8797 8.2631 2.0202.52830 2.1018.20193 2.1018-8.4064 0-11.723 2.2436-15.967 10.7-20.24 7.1705-3.6229 18.186-.62157 22.836 6.2221 2.2023 3.241 2.4634 4.6605 2.4634 13.393 0 8.2343.24798 9.7679 1.5795 9.7679 2.1109 0 .98156 5.6526-1.7174 8.5964-1.7663 1.9265-2.7188 2.058-11.754 1.6229-10.054-.48416-11.963.10812-10.728 3.3286.67719 1.7647 13.018 2.0247 18.877.39773zm-25.19-9.981c1.6599-.88836 1.9343-2.1475 1.9343-8.8776 0-8.2673-1.1051-10.596-4.702-9.9088-1.5303.29246-1.8415 1.585-2.09 8.6795-.18515 5.2853.13412 8.8493.87244 9.7389 1.3928 1.6783 1.5157 1.6896 3.9853.36790zm26 0c1.6574-.88701 1.9343-2.1466 1.9343-8.8 0-7.9931-.88983-10.165-4.1648-10.165-2.6388 0-3.8352 3.1523-3.8352 10.106 0 4.4003.48738 6.7755 1.655 8.0657 1.9372 2.1406 1.9047 2.1348 4.4108.79356z" fill="#d37628"/>
</svg>
