<?xml version="1.0" ?><!DOCTYPE svg  PUBLIC '-//W3C//DTD SVG 1.1//EN'  'http://www.w3.org/Graphics/SVG/1.1/DTD/svg11.dtd'><svg enable-background="new 0 0 100 100" height="100px" id="Layer_1" version="1.1" viewBox="0 0 100 100" width="100px" xml:space="preserve" xmlns="http://www.w3.org/2000/svg" xmlns:xlink="http://www.w3.org/1999/xlink"><g><g><path d="M86.185,5H13.815c-2.032,0-3.685,1.653-3.685,3.685v82.631c0,2.031,1.652,3.685,3.685,3.685h72.369    c2.032,0,3.685-1.653,3.685-3.685V8.685C89.869,6.653,88.217,5,86.185,5z M40.2,80.793c-0.4,0.682-0.918,1.231-1.55,1.623    c-0.609,0.389-1.243,0.641-1.886,0.775c-0.804,0.147-1.915,0.21-3.38,0.21h-1.257v5.281h-4.644V73.283h5.749    c1.978,0,3.25,0.085,3.897,0.24c1.039,0.241,1.921,0.788,2.622,1.613c0.702,0.825,1.051,1.886,1.051,3.151    C40.804,79.261,40.603,80.104,40.2,80.793z M56.283,80.793c-0.4,0.682-0.917,1.231-1.55,1.623    c-0.609,0.389-1.242,0.641-1.886,0.775c-0.805,0.147-1.915,0.21-3.38,0.21h-1.257v5.281h-4.643V73.283h5.748    c1.978,0,3.251,0.085,3.897,0.24c1.04,0.241,1.921,0.788,2.623,1.613c0.701,0.825,1.05,1.886,1.05,3.151    C56.887,79.261,56.687,80.104,56.283,80.793z M72.516,77.437h-4.213v11.068h-5.104V77.437h-4.222v-4.331h13.539V77.437z     M15.264,67.654l0.002-57.521h69.466l0.012,57.521H15.264z" fill="#D24626"/><path d="M34.954,77.147c-0.222-0.036-0.77-0.081-2.099-0.081h-0.728v2.554h0.93c1.524,0,2.03-0.121,2.178-0.167    c0.267-0.098,0.465-0.245,0.615-0.439c0.141-0.193,0.217-0.413,0.217-0.681c0-0.336-0.102-0.585-0.293-0.782    C35.561,77.331,35.294,77.204,34.954,77.147z" fill="#D24626"/><path d="M51.038,77.147c-0.223-0.036-0.77-0.081-2.1-0.081h-0.728v2.554h0.93c1.525,0,2.03-0.121,2.179-0.167    c0.267-0.098,0.464-0.245,0.614-0.439c0.141-0.193,0.217-0.413,0.217-0.681c0-0.336-0.102-0.585-0.293-0.782    C51.644,77.331,51.377,77.204,51.038,77.147z" fill="#D24626"/></g><g><g><rect fill="#D04626" height="5.365" width="23.266" x="21.8" y="25.48"/><rect fill="#D04626" height="5.365" width="23.266" x="21.8" y="36.211"/><rect fill="#D04626" height="5.365" width="23.266" x="21.8" y="46.942"/></g><g><path d="M78.2,38.875c-0.559-7.848-6.846-14.135-14.692-14.692v14.692H78.2z" fill="#D04626"/><path d="M61.241,41.141V26.456c-6.979,0.576-12.465,6.421-12.465,13.55c0,7.512,6.088,13.6,13.6,13.6     c7.13,0,12.975-5.485,13.551-12.465H61.241z" fill="#D04626"/></g></g></g></svg>