<?xml version="1.0" ?><!DOCTYPE svg  PUBLIC '-//W3C//DTD SVG 1.1//EN'  'http://www.w3.org/Graphics/SVG/1.1/DTD/svg11.dtd'><svg enable-background="new 0 0 100 100" height="100px" id="Layer_1" version="1.1" viewBox="0 0 100 100" width="100px" xml:space="preserve" xmlns="http://www.w3.org/2000/svg" xmlns:xlink="http://www.w3.org/1999/xlink"><g><path d="M86.185,5H13.815c-2.032,0-3.685,1.653-3.685,3.685v82.631c0,2.031,1.652,3.685,3.685,3.685h72.369   c2.032,0,3.685-1.653,3.685-3.685V8.685C89.869,6.653,88.217,5,86.185,5z M39.551,88.497l-2.165-3.677l-2.172,3.677h-5.187   l4.75-7.896l-4.349-7.311h5.11l1.89,3.296l1.851-3.296h5.081l-4.354,7.403l4.762,7.803H39.551z M57.565,88.48l-10.71,0.017V73.291   h4.448v11.181h6.262V88.48z M64.329,88.683c-1.548,0-3.505-0.545-4.292-1.035l-0.419-0.261l0.628-3.826l0.928,0.537   c0.618,0.355,2.057,0.752,3.135,0.752c0.743,0,1.188-0.346,1.188-0.924c0-0.256,0-0.605-1.572-1.239   c-2.52-0.987-3.798-2.577-3.798-4.724c0-2.859,2.193-4.857,5.336-4.857c1.439,0,3.048,0.433,3.894,0.862l0.54,0.274l-1.021,3.701   l-0.819-0.444c-0.398-0.216-1.42-0.56-2.464-0.56c-0.865,0-0.933,0.582-0.933,0.761c0,0.299,0,0.515,1.712,1.245   c2.457,1.022,3.603,2.535,3.603,4.759C69.973,86.001,68.495,88.683,64.329,88.683z M15.264,67.654l0.002-57.521h69.466   l0.012,57.521H15.264z" fill="#08A626"/><g><g><rect fill="#08A626" height="8.706" width="13.059" x="61.172" y="21.192"/><rect fill="#08A626" height="8.706" width="13.059" x="61.172" y="34.541"/><rect fill="#08A626" height="8.705" width="13.059" x="61.172" y="47.89"/><rect fill="#08A626" height="8.705" width="13.059" x="43.471" y="47.89"/><rect fill="#08A626" height="8.705" width="13.059" x="25.77" y="47.89"/></g><polygon fill="#08A626" points="47.275,31.912 55.117,22.104 47.331,22.104 43.33,27.386 39.531,22.104 31.467,22.104     39.455,32.138 31.138,42.771 38.897,42.771 43.322,36.793 47.706,42.771 55.804,42.771   "/></g></g></svg>