<?xml version="1.0" ?><!DOCTYPE svg  PUBLIC '-//W3C//DTD SVG 1.1//EN'  'http://www.w3.org/Graphics/SVG/1.1/DTD/svg11.dtd'><svg enable-background="new 0 0 100 100" height="100px" id="Layer_1" version="1.1" viewBox="0 0 100 100" width="100px" xml:space="preserve" xmlns="http://www.w3.org/2000/svg" xmlns:xlink="http://www.w3.org/1999/xlink"><g><g><path d="M36.089,77.101c-0.22-0.036-0.761-0.08-2.075-0.08h-0.721v2.525h0.919c1.509,0,2.009-0.12,2.154-0.165    c0.265-0.097,0.46-0.242,0.608-0.434c0.14-0.192,0.214-0.409,0.214-0.675c0-0.331-0.099-0.577-0.289-0.772    C36.688,77.282,36.425,77.157,36.089,77.101z" fill="#A80C08"/><path d="M49.643,77.04c-0.216,0-0.398,0.008-0.551,0.02v7.646c0.09,0.001,0.177,0.001,0.253,0.001l0.05,0.001    c1.092,0,1.938-0.317,2.516-0.942c0.632-0.683,0.951-1.73,0.951-3.115c0.008-1.239-0.296-2.176-0.904-2.788    C51.414,77.316,50.636,77.04,49.643,77.04z" fill="#A80C08"/><path d="M86.185,5H13.815c-2.032,0-3.685,1.653-3.685,3.685v82.631c0,2.031,1.652,3.685,3.685,3.685h72.369    c2.032,0,3.685-1.653,3.685-3.685V8.685C89.869,6.653,88.217,5,86.185,5z M41.276,80.705c-0.396,0.674-0.907,1.219-1.532,1.605    c-0.603,0.385-1.229,0.635-1.865,0.769c-0.796,0.145-1.894,0.206-3.343,0.206h-1.243v5.224h-4.787v-15.23h5.881    c1.956,0,3.215,0.084,3.854,0.237c1.029,0.238,1.901,0.779,2.595,1.596s1.039,1.866,1.039,3.117    C41.874,79.19,41.675,80.025,41.276,80.705z M55.028,86.634c-1.439,1.304-3.558,1.962-6.299,1.962    c-1.235,0-2.442-0.071-3.417-0.211l-0.632-0.09V73.594l0.609-0.106c1.088-0.189,2.583-0.295,4.055-0.295    c2.51,0,4.242,0.502,5.614,1.629c1.565,1.267,2.395,3.248,2.395,5.728C57.354,83.807,56.09,85.656,55.028,86.634z M71.494,77.165    h-6.621v2.012h5.906v3.52h-5.906v5.813h-4.589v-15.23h11.21V77.165z M15.264,67.654l0.002-57.521h69.466l0.012,57.521H15.264z" fill="#A80C08"/></g><path d="M31.893,59.663c-0.004,0-0.006,0-0.011,0c-0.705,0-1.351-0.273-1.867-0.79   c-0.624-0.623-0.886-1.446-0.738-2.314c0.528-3.119,6.254-6.38,9.854-8.145c1.359-2.387,2.767-5.13,4.075-7.959   c1.187-2.56,2.264-5.182,3.127-7.618c-1.862-4.411-3.294-10.351-1.425-13.212c0.631-0.967,1.616-1.5,2.771-1.5   c1.053,0,1.919,0.434,2.503,1.254c1.448,2.038,1.003,6.529-1.326,13.358c0.855,1.883,1.859,3.657,2.989,5.279   c1.204,1.727,2.942,3.366,5.047,4.76c2.094-0.313,4.05-0.473,5.823-0.473c3.595,0,6.025,0.637,7.224,1.892   c0.574,0.6,0.857,1.339,0.821,2.136c-0.025,0.585-0.372,2.491-3.706,2.491c-2.957,0-7.102-1.399-10.672-3.585   c-2.147,0.36-4.347,0.871-6.543,1.522c-3.063,0.907-6.179,2.1-9.034,3.456C35.333,59.616,32.758,59.663,31.893,59.663z    M36.659,52.42c-3.265,1.959-4.912,3.629-5.064,4.531c-0.021,0.123-0.006,0.172,0.083,0.259c0.101,0.103,0.159,0.103,0.205,0.103   C32.5,57.313,34.104,56.194,36.659,52.42z M42.891,46.597l-0.094,0.167c2.084-0.861,4.242-1.627,6.373-2.259   c1.442-0.427,2.884-0.795,4.314-1.104l-0.106-0.069l0.252-0.04c-1.486-1.209-2.746-2.541-3.713-3.93   c-0.771-1.107-1.487-2.281-2.142-3.506l-0.055,0.153l-0.031-0.074c-0.706,1.812-1.499,3.678-2.348,5.509   c-0.831,1.792-1.699,3.551-2.572,5.212L42.891,46.597z M60.456,44.74c2.626,1.184,5.048,1.73,6.599,1.73   c0.871,0,1.261-0.174,1.357-0.254c0.004-0.116-0.019-0.238-0.172-0.397c-0.536-0.563-2.272-1.164-5.524-1.164   C61.995,44.655,61.242,44.684,60.456,44.74z M47.68,20.476c-0.369,0-0.603,0.127-0.805,0.436c-0.749,1.146-0.692,4.277,0.62,8.326   c1.426-4.975,1.359-7.667,0.771-8.495C48.149,20.577,48.01,20.476,47.68,20.476z" fill="#A80C08"/></g></svg>