<?xml version="1.0" ?><!DOCTYPE svg  PUBLIC '-//W3C//DTD SVG 1.1//EN'  'http://www.w3.org/Graphics/SVG/1.1/DTD/svg11.dtd'><svg enable-background="new 0 0 100 100" height="100px" id="Layer_1" version="1.1" viewBox="0 0 100 100" width="100px" xml:space="preserve" xmlns="http://www.w3.org/2000/svg" xmlns:xlink="http://www.w3.org/1999/xlink"><g><g><path d="M86.185,5H13.815c-2.032,0-3.685,1.653-3.685,3.685v82.631c0,2.031,1.652,3.685,3.685,3.685h72.369    c2.032,0,3.685-1.653,3.685-3.685V8.685C89.869,6.653,88.217,5,86.185,5z M38.375,88.683H24.812l0.001-3.553l6.73-8.286h-5.857    v-3.694h12.386v3.052l-7.112,8.704h7.416V88.683z M45.629,88.64h-4.644V73.105h4.644V88.64z M59.556,82.319    c-0.561,0.386-1.15,0.65-1.74,0.779c-0.743,0.146-1.766,0.215-3.12,0.215h-1.163v5.326h-4.466V73.105h5.485    c1.823,0,3,0.078,3.593,0.236c0.962,0.25,1.78,0.799,2.422,1.632c0.652,0.833,0.975,1.905,0.975,3.183    c0,0.98-0.186,1.83-0.559,2.521C60.617,81.365,60.136,81.919,59.556,82.319z M70.256,88.554l-2.348-3.986l-2.354,3.986H60.65    l4.789-7.962l-4.377-7.357h4.825l2.066,3.604l2.023-3.604h4.797l-4.386,7.456l4.8,7.863H70.256z M15.264,67.654l0.002-57.521    h69.466l0.012,57.521H15.264z" fill="#0462C2"/><path d="M56.144,77c-0.209-0.04-0.712-0.087-1.941-0.087h-0.67v2.582h0.86c1.409,0,1.872-0.119,2.008-0.173    c0.246-0.094,0.429-0.237,0.57-0.434c0.132-0.193,0.198-0.421,0.198-0.691c0-0.334-0.095-0.594-0.273-0.794    C56.7,77.187,56.455,77.057,56.144,77z" fill="#0462C2"/></g><rect fill="#0462C2" height="3.308" width="5.512" x="50" y="13.798"/><rect fill="#0462C2" height="3.308" width="5.512" x="50" y="20.413"/><rect fill="#0462C2" height="3.308" width="5.512" x="50" y="27.028"/><rect fill="#0462C2" height="3.308" width="5.512" x="50" y="33.644"/><rect fill="#0462C2" height="3.307" width="5.512" x="50" y="40.26"/><rect fill="#0462C2" height="3.309" width="5.512" x="44.488" y="36.951"/><rect fill="#0462C2" height="3.308" width="5.512" x="44.488" y="30.336"/><rect fill="#0462C2" height="3.308" width="5.512" x="44.488" y="23.721"/><rect fill="#0462C2" height="3.308" width="5.512" x="44.488" y="17.105"/><path d="M50,50.019c-1.538,0-2.611-1.073-2.611-2.611c0-1.537,1.073-2.611,2.611-2.611   c1.537,0,2.611,1.074,2.611,2.611C52.611,48.945,51.537,50.019,50,50.019z" fill="#0462C2"/><path d="M48.858,43.657c0.118-0.035,0.238-0.066,0.362-0.091h-4.732v3.308h1.645   C46.324,45.277,47.369,44.066,48.858,43.657z" fill="#0462C2"/><path d="M53.335,60.47l-1.159-9.767c-0.61,0.387-1.352,0.607-2.176,0.607c-0.825,0-1.565-0.221-2.176-0.607   l-1.159,9.767C46.474,62.415,48.063,63.99,50,63.99S53.526,62.415,53.335,60.47z M50,63.079c-1.302,0-2.357-1.06-2.357-2.357   c0-1.306,1.056-2.357,2.357-2.357s2.357,1.052,2.357,2.357C52.357,62.02,51.302,63.079,50,63.079z" fill="#0462C2"/></g></svg>