<?xml version="1.0" ?><!DOCTYPE svg  PUBLIC '-//W3C//DTD SVG 1.1//EN'  'http://www.w3.org/Graphics/SVG/1.1/DTD/svg11.dtd'><svg enable-background="new 0 0 100 100" height="100px" id="Layer_1" version="1.1" viewBox="0 0 100 100" width="100px" xml:space="preserve" xmlns="http://www.w3.org/2000/svg" xmlns:xlink="http://www.w3.org/1999/xlink"><g><rect fill="#0C6ECE" height="3.871" width="50.191" x="24.904" y="25.465"/><rect fill="#0C6ECE" height="3.871" width="50.191" x="24.904" y="36.958"/><rect fill="#0C6ECE" height="3.872" width="50.191" x="24.904" y="48.451"/><path d="M86.185,5H13.815c-2.032,0-3.685,1.653-3.685,3.685v82.631c0,2.031,1.652,3.685,3.685,3.685h72.369   c2.032,0,3.685-1.653,3.685-3.685V8.685C89.869,6.653,88.217,5,86.185,5z M41.39,77.26h-3.731v11.423h-4.417V77.26h-3.765v-4.063   H41.39V77.26z M52.311,88.592l-2.204-3.745l-2.212,3.745h-5.283l4.838-8.042l-4.429-7.444h5.204l1.925,3.356l1.885-3.356h5.175   l-4.435,7.54l4.85,7.946H52.311z M70.523,77.26h-3.822v11.423h-4.328V77.26h-3.764v-4.063h11.914V77.26z M15.264,67.654   l0.002-57.521h69.466l0.012,57.521H15.264z" fill="#0C6ECE"/></g></svg>