<?xml version="1.0" ?><!DOCTYPE svg  PUBLIC '-//W3C//DTD SVG 1.1//EN'  'http://www.w3.org/Graphics/SVG/1.1/DTD/svg11.dtd'><svg enable-background="new 0 0 100 100" height="100px" id="Layer_1" version="1.1" viewBox="0 0 100 100" width="100px" xml:space="preserve" xmlns="http://www.w3.org/2000/svg" xmlns:xlink="http://www.w3.org/1999/xlink"><g><g><rect fill="#023C70" height="3.591" width="21.349" x="54.896" y="28.044"/><rect fill="#023C70" height="3.591" width="21.349" x="54.896" y="37.099"/><rect fill="#023C70" height="3.59" width="52.328" x="23.916" y="46.153"/><rect fill="#023C70" height="3.591" width="52.328" x="23.916" y="55.207"/><path d="M25.283,22.022c0.179,0.454,0.401,1.185,0.666,2.195l4.369,16.457h3.631l3.938-13.948l3.38,13.948h3.596    l4.835-14.944c0.421-1.283,0.742-2.214,0.964-2.789c0.225-0.578,0.417-1.018,0.594-1.319c0.173-0.302,0.358-0.541,0.556-0.714    c0.198-0.174,0.477-0.325,0.837-0.454v-1.449h-6.777v1.428c0.53,0.1,0.934,0.349,1.222,0.746c0.287,0.396,0.431,0.896,0.431,1.503    c0,0.402-0.044,0.873-0.134,1.405c-0.092,0.535-0.255,1.189-0.495,1.968l-2.354,7.81l-3.488-14.859h-3.343l-4.137,14.859    l-2.248-8.979c-0.119-0.488-0.228-0.952-0.323-1.393c-0.097-0.441-0.144-0.839-0.144-1.199c0-0.535,0.142-0.95,0.423-1.246    s0.704-0.499,1.268-0.615v-1.428h-8.792v1.428c0.384,0.1,0.688,0.276,0.915,0.529C24.897,21.215,25.104,21.569,25.283,22.022z" fill="#023C70"/></g><g><path d="M86.185,5H13.815c-2.032,0-3.685,1.653-3.685,3.685v82.631c0,2.031,1.652,3.685,3.685,3.685h72.369    c2.032,0,3.685-1.653,3.685-3.685V8.685C89.869,6.653,88.217,5,86.185,5z M39.58,86.699c-1.456,1.317-3.598,1.983-6.37,1.983    c-1.249,0-2.47-0.071-3.456-0.213l-0.639-0.092V73.513l0.616-0.108c1.1-0.192,2.612-0.299,4.101-0.299    c2.539,0,4.29,0.509,5.679,1.648c1.583,1.28,2.422,3.284,2.422,5.791C41.933,83.84,40.653,85.71,39.58,86.699z M55.649,86.563    c-1.243,1.406-2.916,2.119-4.97,2.119c-2.076,0-3.759-0.71-5.001-2.108c-1.219-1.371-1.837-3.254-1.837-5.597    c0-1.475,0.211-2.741,0.626-3.767c0.317-0.772,0.754-1.473,1.301-2.086c0.561-0.628,1.189-1.103,1.87-1.412    c0.872-0.402,1.885-0.607,3.008-0.607c2.059,0,3.737,0.715,4.988,2.122c1.227,1.381,1.85,3.294,1.85,5.685    C57.484,83.285,56.866,85.187,55.649,86.563z M67.097,84.654c0.78,0,1.635-0.193,2.073-0.385l0.855-0.372l0.685,3.854    l-0.466,0.253c-0.602,0.327-1.857,0.678-3.576,0.678c-4.444,0-7.315-2.974-7.315-7.575c0-4.786,3.052-8.002,7.595-8.002    c1.629,0,2.854,0.364,3.456,0.704l0.48,0.271l-0.909,3.866l-0.815-0.372c-0.642-0.293-1.341-0.441-2.081-0.441    c-2.08,0-3.273,1.382-3.273,3.791C63.805,83.295,65.005,84.654,67.097,84.654z M15.264,67.654l0.002-57.521h69.466l0.012,57.521    H15.264z" fill="#023C70"/><path d="M34.134,76.997c-0.219,0-0.403,0.008-0.557,0.02v7.733c0.09,0,0.179,0,0.255,0l0.051,0.001    c1.104,0,1.96-0.321,2.544-0.953c0.639-0.69,0.962-1.75,0.962-3.149c0.009-1.253-0.299-2.2-0.915-2.819    C35.926,77.277,35.139,76.997,34.134,76.997z" fill="#023C70"/><path d="M50.671,77.044c-0.796,0-1.393,0.274-1.875,0.862c-0.508,0.62-0.766,1.622-0.766,2.979    c0,1.331,0.266,2.33,0.79,2.968c0.5,0.607,1.088,0.891,1.851,0.891s1.346-0.28,1.838-0.88c0.517-0.633,0.778-1.647,0.778-3.016    c0-1.352-0.254-2.346-0.753-2.956C52.061,77.313,51.468,77.044,50.671,77.044z" fill="#023C70"/></g></g></svg>