<?xml version="1.0" ?><!DOCTYPE svg  PUBLIC '-//W3C//DTD SVG 1.1//EN'  'http://www.w3.org/Graphics/SVG/1.1/DTD/svg11.dtd'><svg enable-background="new 0 0 100 100" height="100px" id="Layer_1" version="1.1" viewBox="0 0 100 100" width="100px" xml:space="preserve" xmlns="http://www.w3.org/2000/svg" xmlns:xlink="http://www.w3.org/1999/xlink"><g><g><path d="M86.185,5H13.815c-2.032,0-3.685,1.653-3.685,3.685v82.631c0,2.031,1.652,3.685,3.685,3.685h72.369    c2.032,0,3.685-1.653,3.685-3.685V8.685C89.869,6.653,88.217,5,86.185,5z M32.721,86.699c-1.456,1.317-3.598,1.983-6.37,1.983    c-1.249,0-2.47-0.071-3.456-0.213l-0.638-0.091V73.513l0.615-0.108c1.101-0.192,2.613-0.299,4.101-0.299    c2.539,0,4.291,0.509,5.679,1.648c1.583,1.28,2.422,3.284,2.422,5.791C35.073,83.84,33.794,85.711,32.721,86.699z M48.236,86.563    c-1.244,1.406-2.916,2.119-4.97,2.119c-2.075,0-3.759-0.71-5.001-2.108c-1.219-1.371-1.836-3.254-1.836-5.597    c0-1.475,0.211-2.741,0.625-3.767c0.317-0.772,0.754-1.473,1.3-2.086c0.562-0.628,1.19-1.103,1.871-1.412    c0.873-0.402,1.885-0.607,3.007-0.607c2.06,0,3.738,0.715,4.989,2.122c1.228,1.381,1.849,3.294,1.849,5.686    C50.07,83.285,49.453,85.187,48.236,86.563z M59.103,84.654c0.78,0,1.634-0.194,2.074-0.385l0.854-0.372l0.685,3.854l-0.466,0.253    c-0.602,0.328-1.857,0.678-3.576,0.678c-4.444,0-7.316-2.974-7.316-7.575c0-4.786,3.053-8.002,7.596-8.002    c1.629,0,2.854,0.364,3.456,0.704l0.48,0.271l-0.909,3.866l-0.815-0.372c-0.642-0.292-1.341-0.44-2.082-0.44    c-2.079,0-3.271,1.381-3.271,3.79C55.812,83.295,57.011,84.654,59.103,84.654z M72.629,88.349l-2.122-3.604l-2.13,3.604h-5.086    l4.657-7.742l-4.263-7.167h5.01l1.853,3.23l1.815-3.23h4.981l-4.27,7.259l4.668,7.65H72.629z M15.264,67.654l0.002-57.521h69.466    l0.012,57.521H15.264z" fill="#144CC8"/><path d="M27.274,76.997c-0.219,0-0.403,0.008-0.558,0.02v7.733c0.091,0.001,0.18,0.001,0.256,0.001h0.051    c1.104,0,1.96-0.32,2.544-0.953c0.639-0.689,0.962-1.75,0.962-3.149c0.008-1.254-0.3-2.2-0.914-2.819    C29.066,77.277,28.278,76.997,27.274,76.997z" fill="#144CC8"/><path d="M43.259,77.044c-0.798,0-1.394,0.274-1.876,0.862c-0.508,0.62-0.766,1.622-0.766,2.979    c0,1.332,0.266,2.331,0.79,2.969c0.5,0.609,1.088,0.892,1.852,0.892c0.763,0,1.346-0.28,1.836-0.881    c0.518-0.632,0.779-1.647,0.779-3.016c0-1.352-0.253-2.346-0.753-2.956C44.647,77.314,44.056,77.044,43.259,77.044z" fill="#144CC8"/></g><g><rect fill="#144CC8" height="3.591" width="21.349" x="54.896" y="28.044"/><rect fill="#144CC8" height="3.591" width="21.349" x="54.896" y="37.099"/><rect fill="#144CC8" height="3.59" width="52.328" x="23.916" y="46.153"/><rect fill="#144CC8" height="3.591" width="52.328" x="23.916" y="55.207"/><path d="M25.283,22.022c0.179,0.454,0.401,1.185,0.666,2.195l4.369,16.457h3.631l3.938-13.948l3.38,13.948h3.596    l4.835-14.944c0.421-1.283,0.742-2.214,0.964-2.789c0.225-0.578,0.417-1.018,0.594-1.319c0.173-0.302,0.358-0.541,0.556-0.714    c0.198-0.174,0.477-0.325,0.837-0.454v-1.449h-6.777v1.428c0.53,0.1,0.934,0.349,1.222,0.746c0.287,0.396,0.431,0.896,0.431,1.503    c0,0.402-0.044,0.873-0.134,1.405c-0.092,0.535-0.255,1.189-0.495,1.968l-2.354,7.81l-3.488-14.859h-3.343l-4.137,14.859    l-2.248-8.979c-0.119-0.488-0.228-0.952-0.323-1.393c-0.097-0.441-0.144-0.839-0.144-1.199c0-0.535,0.142-0.95,0.423-1.246    s0.704-0.499,1.268-0.615v-1.428h-8.792v1.428c0.384,0.1,0.688,0.276,0.915,0.529C24.897,21.215,25.104,21.569,25.283,22.022z" fill="#144CC8"/></g></g></svg>