<?xml version="1.0" ?><!DOCTYPE svg  PUBLIC '-//W3C//DTD SVG 1.1//EN'  'http://www.w3.org/Graphics/SVG/1.1/DTD/svg11.dtd'><svg enable-background="new 0 0 100 100" height="100px" id="Layer_1" version="1.1" viewBox="0 0 100 100" width="100px" xml:space="preserve" xmlns="http://www.w3.org/2000/svg" xmlns:xlink="http://www.w3.org/1999/xlink"><g><g><path d="M63.314,77.036c-0.209-0.073-0.716-0.102-1.932-0.102h-0.684v2.59h0.859c1.428,0,1.896-0.134,2.012-0.202    c0.244-0.074,0.432-0.217,0.567-0.429c0.134-0.185,0.205-0.43,0.205-0.682c0-0.32-0.101-0.605-0.285-0.806    C63.886,77.191,63.63,77.079,63.314,77.036z" fill="#484C56"/><path d="M86.185,5H13.815c-2.032,0-3.685,1.653-3.685,3.685v82.631c0,2.032,1.652,3.685,3.685,3.685h72.369    c2.032,0,3.685-1.652,3.685-3.685V8.685C89.869,6.653,88.217,5,86.185,5z M44.874,88.683H31.296v-3.542l6.736-8.271h-5.85v-3.693    h12.365v3.056l-7.104,8.675h7.431V88.683z M52.309,88.666h-4.646V73.105h4.646V88.666z M68.172,80.678    c-0.386,0.713-0.856,1.267-1.427,1.646c-0.574,0.409-1.163,0.64-1.757,0.782c-0.746,0.145-1.751,0.218-3.104,0.218h-1.186v5.342    h-4.462V73.105h5.505c1.816,0,2.999,0.087,3.573,0.265c0.958,0.236,1.786,0.808,2.429,1.608c0.644,0.84,0.96,1.915,0.96,3.198    C68.704,79.162,68.53,80.005,68.172,80.678z M15.264,67.654l0.002-57.521h69.466l0.012,57.521H15.264z" fill="#484C56"/></g><rect fill="#484C56" height="3.308" width="5.512" x="50" y="13.798"/><rect fill="#484C56" height="3.308" width="5.512" x="50" y="20.413"/><rect fill="#484C56" height="3.308" width="5.512" x="50" y="27.028"/><rect fill="#484C56" height="3.308" width="5.512" x="50" y="33.644"/><rect fill="#484C56" height="3.307" width="5.512" x="50" y="40.26"/><rect fill="#484C56" height="3.309" width="5.512" x="44.488" y="36.951"/><rect fill="#484C56" height="3.308" width="5.512" x="44.488" y="30.336"/><rect fill="#484C56" height="3.308" width="5.512" x="44.488" y="23.721"/><rect fill="#484C56" height="3.308" width="5.512" x="44.488" y="17.105"/><path d="M50,50.019c-1.538,0-2.611-1.073-2.611-2.611c0-1.537,1.073-2.61,2.611-2.61   c1.537,0,2.611,1.073,2.611,2.61C52.611,48.945,51.537,50.019,50,50.019z" fill="#484C56"/><path d="M48.858,43.657c0.118-0.035,0.238-0.066,0.362-0.091h-4.732v3.308h1.645   C46.324,45.277,47.369,44.066,48.858,43.657z" fill="#484C56"/><path d="M53.335,60.47l-1.159-9.767c-0.61,0.387-1.352,0.607-2.176,0.607c-0.825,0-1.565-0.221-2.176-0.607   l-1.159,9.767C46.474,62.415,48.063,63.99,50,63.99S53.526,62.415,53.335,60.47z M50,63.079c-1.302,0-2.357-1.06-2.357-2.357   c0-1.306,1.056-2.357,2.357-2.357s2.357,1.052,2.357,2.357C52.357,62.02,51.302,63.079,50,63.079z" fill="#484C56"/></g></svg>