<?xml version="1.0" ?><!DOCTYPE svg  PUBLIC '-//W3C//DTD SVG 1.1//EN'  'http://www.w3.org/Graphics/SVG/1.1/DTD/svg11.dtd'><svg enable-background="new 0 0 100 100" height="100px" id="Layer_1" version="1.1" viewBox="0 0 100 100" width="100px" xml:space="preserve" xmlns="http://www.w3.org/2000/svg" xmlns:xlink="http://www.w3.org/1999/xlink"><g><path d="M86.185,5H13.815c-2.032,0-3.685,1.653-3.685,3.685v82.631c0,2.031,1.652,3.685,3.685,3.685h72.369   c2.032,0,3.685-1.653,3.685-3.685V8.685C89.869,6.653,88.217,5,86.185,5z M33.339,88.169l-2.069-3.515l-2.075,3.515h-4.955   l4.538-7.546l-4.155-6.985h4.884l1.804,3.149l1.771-3.149h4.855l-4.162,7.075l4.55,7.456H33.339z M49.423,88.423h-9.884v-15.04   h4.54v10.884h5.344V88.423z M55.604,88.683c-1.547,0-3.505-0.546-4.293-1.035l-0.418-0.261l0.628-3.826l0.928,0.537   c0.618,0.354,2.057,0.751,3.135,0.751c0.743,0,1.187-0.346,1.187-0.924c0-0.256,0-0.604-1.571-1.238   c-2.521-0.987-3.799-2.577-3.799-4.724c0-2.86,2.193-4.857,5.337-4.857c1.438,0,3.048,0.433,3.894,0.862l0.54,0.274l-1.021,3.7   l-0.819-0.443c-0.399-0.216-1.421-0.56-2.465-0.56c-0.865,0-0.932,0.581-0.932,0.76c0,0.3,0,0.516,1.71,1.246   c2.459,1.022,3.604,2.534,3.604,4.759C61.247,86.001,59.77,88.683,55.604,88.683z M70.776,88.169l-2.069-3.515l-2.075,3.515h-4.956   l4.538-7.546l-4.155-6.985h4.884l1.805,3.149l1.771-3.149h4.854l-4.161,7.075l4.55,7.456H70.776z M15.264,67.654l0.002-57.521   h69.466l0.012,57.521H15.264z" fill="#08A626"/><g><g><rect fill="#08A626" height="8.705" width="13.058" x="61.173" y="21.192"/><rect fill="#08A626" height="8.705" width="13.058" x="61.173" y="34.541"/><rect fill="#08A626" height="8.705" width="13.058" x="61.173" y="47.891"/><rect fill="#08A626" height="8.705" width="13.059" x="43.471" y="47.891"/><rect fill="#08A626" height="8.705" width="13.058" x="25.77" y="47.891"/></g><polygon fill="#08A626" points="47.278,31.914 55.118,22.106 47.327,22.106 43.33,27.384 39.529,22.106 31.47,22.106     39.457,32.14 31.141,42.77 38.9,42.77 43.321,36.79 47.704,42.77 55.801,42.77   "/></g></g></svg>