<?xml version="1.0" ?><!DOCTYPE svg  PUBLIC '-//W3C//DTD SVG 1.1//EN'  'http://www.w3.org/Graphics/SVG/1.1/DTD/svg11.dtd'><svg enable-background="new 0 0 100 100" height="100px" id="Layer_1" version="1.1" viewBox="0 0 100 100" width="100px" xml:space="preserve" xmlns="http://www.w3.org/2000/svg" xmlns:xlink="http://www.w3.org/1999/xlink"><g><g><path d="M86.185,5H13.815c-2.032,0-3.685,1.653-3.685,3.685v82.631c0,2.031,1.652,3.685,3.685,3.685h72.369    c2.032,0,3.685-1.653,3.685-3.685V8.685C89.869,6.653,88.217,5,86.185,5z M34.523,80.756c-0.342,0.7-0.791,1.264-1.335,1.675    c-0.531,0.402-1.088,0.675-1.654,0.81c-0.697,0.15-1.628,0.222-2.863,0.222h-0.805v5.221h-4.412V73.105h5.096    c2.209,0,2.939,0.139,3.296,0.242c0.914,0.262,1.688,0.829,2.295,1.688c0.595,0.842,0.896,1.918,0.896,3.196    C35.037,79.211,34.864,80.06,34.523,80.756z M47.711,80.756c-0.343,0.7-0.792,1.264-1.336,1.675    c-0.53,0.402-1.088,0.675-1.654,0.81c-0.697,0.15-1.627,0.222-2.862,0.222h-0.806v5.221h-4.411V73.105h5.095    c2.21,0,2.939,0.139,3.296,0.242c0.915,0.262,1.688,0.829,2.295,1.688c0.595,0.842,0.896,1.918,0.896,3.196    C48.224,79.211,48.051,80.06,47.711,80.756z M61.71,77.184h-3.765v11.499h-4.52V77.184h-3.771v-4.078H61.71V77.184z     M71.477,88.578l-2.292-3.894l-2.299,3.894h-5.039l4.802-7.984l-4.392-7.383h4.962l2.011,3.508l1.971-3.508h4.932l-4.399,7.479    l4.813,7.888H71.477z M15.264,67.654l0.002-57.521h69.466l0.012,57.521H15.264z" fill="#D04626"/><path d="M29.918,77.262c-0.147-0.03-0.551-0.078-1.681-0.078h-0.371v2.191h0.536c1.276,0,1.632-0.124,1.69-0.148    c0.178-0.076,0.307-0.185,0.405-0.342c0.106-0.169,0.158-0.37,0.158-0.615c0-0.297-0.068-0.523-0.207-0.691    C30.306,77.405,30.136,77.305,29.918,77.262z" fill="#D04626"/><path d="M43.104,77.262c-0.147-0.03-0.55-0.078-1.681-0.078h-0.371v2.191h0.536c1.276,0,1.632-0.124,1.69-0.148    c0.178-0.076,0.307-0.185,0.406-0.342c0.106-0.169,0.157-0.37,0.157-0.615c0-0.297-0.067-0.523-0.207-0.691    C43.492,77.405,43.323,77.305,43.104,77.262z" fill="#D04626"/></g><g><g><rect fill="#D04626" height="5.365" width="23.266" x="21.8" y="25.48"/><rect fill="#D04626" height="5.365" width="23.266" x="21.8" y="36.211"/><rect fill="#D04626" height="5.365" width="23.266" x="21.8" y="46.942"/></g><g><path d="M78.2,38.875c-0.559-7.848-6.846-14.135-14.692-14.692v14.692H78.2z" fill="#D04626"/><path d="M61.241,41.141V26.456c-6.979,0.576-12.465,6.421-12.465,13.55c0,7.512,6.088,13.6,13.6,13.6     c7.13,0,12.975-5.485,13.551-12.465H61.241z" fill="#D04626"/></g></g></g></svg>