<?xml version="1.0" encoding="UTF-8" standalone="no"?>
<svg id="svg6777" xmlns:rdf="http://www.w3.org/1999/02/22-rdf-syntax-ns#" xmlns="http://www.w3.org/2000/svg" height="64" viewBox="0 0 64 64" width="64" version="1.1" xmlns:cc="http://creativecommons.org/ns#" xmlns:dc="http://purl.org/dc/elements/1.1/">
 <path id="path7329" d="m6.6528 52c-1.8793-1.65-4.1449-3-5.0348-3-1.2749 0-1.618-1.06-1.618-5 0-3.8138.36172-5 1.5248-5 .83861 0 1.93-1.0659 2.4253-2.3687.49531-1.3028 1.9597-3.2153 3.2541-4.25 1.3701-1.0952 2.1976-2.6581 1.9804-3.7402-.59166-2.9476 2.5549-9.9935 6.0822-13.619 9.125-9.3804 24.341-9.3804 33.466 0 3.5194 3.6179 6.67 10.661 6.0926 13.619-.21609 1.1073.73498 2.7863 2.3523 4.1528 1.4933 1.2617 2.9944 3.1742 3.3359 4.25.341 1.076 1.265 1.956 2.053 1.956 1.053 0 1.433 1.327 1.433 5 0 3.9398-.34307 5-1.618 5-.88989 0-3.1556 1.35-5.0348 3-2.0909 1.8358-4.5254 3-6.2734 3-7.9487 0-8.0161-22.964-.07378-25.122 1.375-.37352 1.7714-.72399.88084-.77881-1.047-.064-1.821-1.34-2.189-3.609-2.407-14.833-23.765-19.027-32.735-6.429-1.1436 1.606-2.3355 4.4993-2.6487 6.4295-.36806 2.2681-1.1423 3.5448-2.1887 3.6092-.891.054-.495.405.880.778 5.372 1.46 7.726 12.769 4.391 21.102-1.352 3.38-2.063 4.02-4.465 4.02-1.748 0-4.1824-1.164-6.2732-3z" fill="#f9be09"/>
</svg>
