<?xml version="1.0" encoding="UTF-8" standalone="no"?>
<!-- Created with Inkscape (http://www.inkscape.org/) -->
<svg id="svg5248" xmlns:rdf="http://www.w3.org/1999/02/22-rdf-syntax-ns#" xmlns="http://www.w3.org/2000/svg" height="256" viewBox="0 0 256 256" width="256" version="1.1" xmlns:cc="http://creativecommons.org/ns#" xmlns:dc="http://purl.org/dc/elements/1.1/">
 <metadata id="metadata5254">
  <rdf:RDF>
   <cc:Work rdf:about="">
    <dc:format>image/svg+xml</dc:format>
    <dc:type rdf:resource="http://purl.org/dc/dcmitype/StillImage"/>
    <dc:title/>
   </cc:Work>
  </rdf:RDF>
 </metadata>
 <path id="path5262" d="m-.73657 128.74v-128h128 128v128 128h-128-128v-128z" fill="#fdfdfc"/>
 <path id="path5260" d="m24.816 213.08c-6.456-1.98-12.932-6.5-16.636-11.62-6.0373-8.33-6.0139-8-5.7012-79.85l.28460-65.375 2.356-4.5c3.2101-6.13 8.6516-11.642 14.644-14.835l5-2.6636 101.66-.26842c100.4-.26509 101.73-.24302 107.15 1.7833 7.3067 2.7338 13.934 8.7463 17.383 15.771l2.8062 5.7144v66c0 53.87-.2563 66.735-1.3946 70-3.3312 9.5549-11.326 17.003-21.492 20.022-7.5576 2.2444-198.7 2.0778-206.06-.17957zm194.45-26.59c1.8183-1.2375 4.2473-3.5205 5.3979-5.0733 2.0621-2.7831 2.092-3.596 2.092-57 0-52.561-.0603-54.281-2.0229-57.677-1.198-2.0727-3.833-4.4175-6.4619-5.75l-4.439-2.25h-86.076-86.076l-4.4619 2.25c-3.2665 1.6472-5.0718 3.4556-6.7385 6.75l-2.2766 4.5.27662 53.178c.27138 52.171.31621 53.231 2.3686 56 1.1506 1.5523 3.5796 3.8349 5.3979 5.0724l3.3059 2.25h88.204 88.204l3.3059-2.25zm-97.627-30.699c-7.7012-1.8385-12.92-5.9851-42.883-34.075-17.05-15.984-31.788-29.993-32.75-31.13-4.1761-4.9344.44616-13.846 7.1816-13.846 3.4341 0 6.8667 2.9247 38.068 32.436 21.441 20.279 26.09 23.064 38.5 23.064 13.11 0 16.246-2.0552 47.294-30.993 29.133-27.153 29.493-27.373 35.283-21.584 3.4693 3.4693 3.752 6.9997.9264 11.572-2.0402 3.3011-59.403 56.054-65.337 60.086-6.6564 4.5231-17.988 6.4503-26.283 4.47z" fill="#89a24b"/>
</svg>
