<?xml version="1.0" encoding="UTF-8" standalone="no"?>
<svg id="svg10477" xmlns:rdf="http://www.w3.org/1999/02/22-rdf-syntax-ns#" xmlns="http://www.w3.org/2000/svg" height="64" viewBox="0 0 64 64" width="64" version="1.1" xmlns:cc="http://creativecommons.org/ns#" xmlns:dc="http://purl.org/dc/elements/1.1/">
 <path id="path11029" d="m25.94 62.009c-.37383-.97418.04662-2.1402 1.0314-2.8602 3.241-2.3699 2.0342-5.1312-2.8389-6.4955-2.9548-.82728-5.685-2.5704-7.9462-5.0733-3.488-3.8608-6.1512-10.923-5.1262-13.595.82368-2.1465 2.5738-.60494 2.5738 2.2671 0 3.9254 3.6284 10.008 7.3369 12.3 4.8626 3.0053 17.463 3.0053 22.326 0 3.7086-2.292 7.3369-8.375 7.3369-12.3 0-2.872 1.7501-4.4135 2.5738-2.2671 1.025 2.671-1.6382 9.7337-5.1262 13.595-2.2612 2.5029-4.9914 4.246-7.9462 5.0733-4.8731 1.3644-6.08 4.1256-2.8389 6.4955.98477.72008 1.4052 1.8861 1.0314 2.8602-.48098 1.2534-1.9543 1.6446-6.1939 1.6446s-5.7129-.39119-6.1939-1.6446zm-2.941-16.275c-4.8-2.926-6.781-9.153-5.901-18.542l.70643-7.5386h5.9147c4.5908 0 5.9147-.33574 5.9147-1.5 0-1.1667-1.3333-1.5-6-1.5s-6-.33333-6-1.5 1.3333-1.5 6-1.5 6-.33333 6-1.5c0-1.1515-1.2778-1.5-5.5-1.5-3.025 0-5.5-.45-5.5-1s2.475-1 5.5-1c4.2222 0 5.5-.34848 5.5-1.5 0-1.1185-1.1839-1.5-4.655-1.5-4.5983 0-4.6329-.024454-2.8372-2.0086 4.2854-4.7353 13.544-4.9904 18.992-.52323l3 2.4599-5.3333.035963c-7.4584.050292-6.4824 2.4316 1.1623 2.8359 7.5587.39974 7.2895 2.2001-0.329 2.2001-4.6667 0-6 .33333-6 1.5 0 1.1795 1.3889 1.5 6.5 1.5s6.5.32051 6.5 1.5c0 1.1814-1.3981 1.5-6.5833 1.5-4.8201 0-6.4728.33479-6.1706 1.25.25464.77126 2.745 1.3632 6.5023 1.5456l6.0896.29561.70215 7.493c1.3191 14.076-3.3473 20.408-15.04 20.408-4.1475 0-6.9679-.59020-9.135-1.9116z" fill="#f9be09"/>
</svg>
