<?xml version="1.0" encoding="UTF-8" standalone="no"?>
<svg id="svg11122" xmlns:rdf="http://www.w3.org/1999/02/22-rdf-syntax-ns#" xmlns="http://www.w3.org/2000/svg" height="256" viewBox="0 0 256 256" width="256" version="1.1" xmlns:cc="http://creativecommons.org/ns#" xmlns:dc="http://purl.org/dc/elements/1.1/">
 <path id="path11676" d="m1.0847 129.08v-128h128 128v128 128h-128-128v-128z" fill="#fdfdfd"/>
 <path id="path11674" d="m30.452 255.31c-1.1731-.95027-2.6356-2.7107-3.25-3.912-.80432-1.5728-1.117-35.671-1.117-121.8 0-132.01-.41793-123.67 6.3571-126.88 3.0814-1.4622 10.472-1.6348 69.997-1.6348 47.414 0 67.266.32554 69.036 1.1321 2.5841 1.1774 58.19 58.573 60.324 62.266.9281 1.6058 1.2229 23.878 1.25 94.428l.0354 92.327-2.9231 2.9231-2.9231 2.9231-97.327-.0222c-90.706-.0207-97.472-.13977-99.46-1.75zm179.63-98.728v-77.5h-22.944c-22.808 0-22.961-.01432-25.75-2.4118l-2.8058-2.4118-.29969-24.588-.29968-24.588h-54.45-54.45v104.5 104.5h80.5 80.5v-77.5zm-137 33v-8.5h57 57v8.5 8.5h-57-57v-8.5zm0-40v-8.5h57 57v8.5 8.5h-57-57v-8.5zm0-39.492v-9.0083h57.039 57.039l-.28894 8.75-.28893 8.75-56.75.25826-56.75.25825v-9.0082zm0-40.008v-9h35 35v9 9h-35-35v-9zm115.95-21.75c-6.8444-7.0125-12.559-12.938-12.699-13.167-.13989-.22917-.25434 5.5083-.25434 12.75v13.167h12.699 12.699l-12.444-12.75z" fill="#989898"/>
</svg>
