<?xml version="1.0" encoding="UTF-8" standalone="no"?>
<svg id="svg11750" xmlns:rdf="http://www.w3.org/1999/02/22-rdf-syntax-ns#" xmlns="http://www.w3.org/2000/svg" height="256" viewBox="0 0 256 256" width="256" version="1.1" xmlns:cc="http://creativecommons.org/ns#" xmlns:dc="http://purl.org/dc/elements/1.1/">
 <path id="path12300" fill="#989898" d="m1.0847 254.39c0-.33775 6.34-14.891 14.089-32.341l14.089-31.73 74.407-74.41 74.41-74.404 18.25 18.247 18.25 18.248-74.41 74.409-74.402 74.41-31.728 14.09c-17.45 7.75-32.003 14.09-32.341 14.09-.3379 0-.6143-.28-.6143-.61zm210.49-210.41-17.99-18.021l12-11.891c12.631-12.516 15.657-14.231 22.243-12.608 3.6748.90571 25.892 23.123 26.797 26.797 1.6122 6.5412-.12007 9.6313-12.329 21.993-6.3826 6.4625-11.858 11.75-12.168 11.75-.30999 0-8.6589-8.1096-18.553-18.021z"/>
</svg>
