<?xml version="1.0" encoding="UTF-8" standalone="no"?>
<!-- Created with Inkscape (http://www.inkscape.org/) -->
<svg id="svg4136" xmlns:rdf="http://www.w3.org/1999/02/22-rdf-syntax-ns#" xmlns="http://www.w3.org/2000/svg" height="256" viewBox="0 0 256 256" width="256" version="1.1" xmlns:cc="http://creativecommons.org/ns#" xmlns:dc="http://purl.org/dc/elements/1.1/">
 <metadata id="metadata4142">
  <rdf:RDF>
   <cc:Work rdf:about="">
    <dc:format>image/svg+xml</dc:format>
    <dc:type rdf:resource="http://purl.org/dc/dcmitype/StillImage"/>
    <dc:title/>
   </cc:Work>
  </rdf:RDF>
 </metadata>
 
 <path id="path4148" d="m188.24 248.56c-11.09-2.98-37.87-17.95-60.42-33.76-34.408-24.12-66.046-53.11-91.335-83.69-9.448-11.42-26.82-36.874-30.891-45.256-5.0616-10.419-7.1336-30.207-4.497-42.944 1.8489-8.932 7.42-19.249 14.374-26.621 13.259-14.055 26.551-15.89 40.122-5.54 5.4669 4.1698 38.545 47.065 39.65 51.418 2.0532 8.0889-4.2209 18.123-12.971 20.745-13.511 4.0479-16.061 16.503-6.9031 33.718 6.0985 11.464 14.937 22.547 28.779 36.088 17.756 17.37 31.398 26.737 43.547 29.902 12.227 3.1848 13.313 2.5133 17.792-11.008 4.7557-14.356 11.077-21.773 18.557-21.773 10.711 0 43.204 21.22 60.705 39.644 8.68 9.14 11.25 13.83 11.25 20.53 0 4.2236-.65232 5.9301-4.3158 11.29-8.1581 11.936-25.18 23.513-40.144 27.304-7.3226 1.8551-16.324 1.8403-23.302-.0384z" fill="#fabe04"/>
</svg>
