<?xml version="1.0" encoding="UTF-8" standalone="no"?>
<svg id="svg12439" xmlns:rdf="http://www.w3.org/1999/02/22-rdf-syntax-ns#" xmlns="http://www.w3.org/2000/svg" height="256" viewBox="0 0 256 256" width="256" version="1.1" xmlns:cc="http://creativecommons.org/ns#" xmlns:dc="http://purl.org/dc/elements/1.1/">
 <path id="path12989" fill="#989898" d="m9.1695 252.83c-1.925-1.2938-4.3653-4.1192-5.4229-6.2787-1.7674-3.61-1.8241-4.61-.7010-12.38 5.567-38.5 32.391-75.72 67.623-93.83 4.95-2.5436 9.1704-4.7695 9.3787-4.9466.20831-.17703-2.5548-3.4904-6.1402-7.363-7.2888-7.8725-13.326-18.607-16.894-30.035-1.9858-6.3616-2.333-9.5491-2.288-21 .04888-12.422.30131-14.222 3.1617-22.549 7.2463-21.094 19.755-35.608 38.781-44.998 20.071-9.9051 39.625-10.903 60.5-3.0891 19.711 7.3784 35.742 23.043 43.67 42.671 11.073 27.414 5.057 58.621-15.595 80.9-2.7711 2.9893-4.9341 5.515-4.8068 5.6127.12734.0977 3.1565 1.5665 6.7315 3.2641 23.206 11.019 46.564 34.348 58.764 58.688 7.0566 14.079 12.854 35.715 11.987 44.737-.95765 9.9665-11.107 15.535-20.334 11.156-4.526-2.1478-6.9455-6.4563-8.3635-14.894-11.249-66.933-83.649-103.87-144.05-73.491-26.149 13.151-46.295 38.918-52.137 66.684-3.8548 18.323-6.4633 22.19-15.539 23.035-3.887.36214-5.5046-.008-8.3245-1.9028zm134.07-129.42c17.591-5.1606 31.325-21.02 33.892-39.136 3.4166-24.109-11.743-46.551-35.654-52.779-24.929-6.4932-51.258 9.768-57.3 35.39-.78710 3.3376-1.0751 8.7821-.75842 14.336.45228 7.9322.98029 9.9031 4.6221 17.253 6.2634 12.64 16.975 21.589 30.13 25.17 6.4199 1.7477 18.705 1.6333 25.068-.23343z"/>
</svg>
