<?xml version="1.0" encoding="UTF-8" standalone="no"?>
<!-- Created with Inkscape (http://www.inkscape.org/) -->
<svg id="svg5117" xmlns:rdf="http://www.w3.org/1999/02/22-rdf-syntax-ns#" xmlns="http://www.w3.org/2000/svg" height="256" viewBox="0 0 256 256" width="256" version="1.1" xmlns:cc="http://creativecommons.org/ns#" xmlns:dc="http://purl.org/dc/elements/1.1/">
 <metadata id="metadata5123">
  <rdf:RDF>
   <cc:Work rdf:about="">
    <dc:format>image/svg+xml</dc:format>
    <dc:type rdf:resource="http://purl.org/dc/dcmitype/StillImage"/>
    <dc:title/>
   </cc:Work>
  </rdf:RDF>
 </metadata>
 <path id="path5131" d="m1.0417 128v-128h128 128v128 128h-128-128v-128z" fill="#fefefe"/>
 <path id="path5129" d="m115.04 255.38c-26.955-3.43-52.223-14.93-71.326-32.44l-6.8276-6.2597-14.422 14.397-14.422 14.397v-38.237-38.237h38.237 38.237l-13.757 13.784-13.757 13.784 3.2707 3.1133c6.7205 6.3969 17.551 13.788 26.271 17.926 43.913 20.844 94.909 7.5604 123.78-32.241 9.81-13.526 17.724-35.837 17.724-49.968 0-7.6096-.43591-7.3981 15.25-7.3981h14.036l-.68735 9.1052c-2.3827 31.563-14.72 58.205-37.505 80.99-18.485 18.485-37.927 29.273-63.095 35.011-8.3484 1.9032-33.113 3.2749-41 2.2709zm-113.6-136.49c2.3827-31.559 14.72-58.2 37.505-80.985 23.717-23.717 50.945-35.87 84.093-37.535 34.07-1.7114 67.81 10.577 92.16 33.566l7.3398 6.9283 15.25-15.17 15.25-15.17v38.238 38.238h-38.236-38.236l12.986-13.074 12.986-13.074-6-5.5356c-21.13-19.491-48.45-28.792-76.89-26.177-40.419 3.715-74.709 32.121-86.06 71.291-1.4071 4.8554-2.8095 12.032-3.1166 15.949-1.006 12.83.623 11.62-15.594 11.62h-14.124l.68735-9.1052z" fill="#989898"/>
</svg>
