<?xml version="1.0" encoding="UTF-8" standalone="no"?>
<svg id="svg16759" xmlns:rdf="http://www.w3.org/1999/02/22-rdf-syntax-ns#" xmlns="http://www.w3.org/2000/svg" height="64" viewBox="0 0 64 64" width="64" version="1.1" xmlns:cc="http://creativecommons.org/ns#" xmlns:xlink="http://www.w3.org/1999/xlink" xmlns:dc="http://purl.org/dc/elements/1.1/">
 <image id="image16767" width="64" xlink:href="/Users/Benoit/Projects/Voxeet/svg images/01-OK/icons/scheduledreccuring.png" height="64" y="0" x="0" preserveAspectRatio="none"/>
 <path id="path17309" fill="#97a651" d="m21.287 56.025c-3.648-1.846-7.502-4.771-9.334-7.085-2.3547-2.972-3.8371-3.94-6.037-3.94-3.3379 0-3.4143-.528-1.0858-7.5 2.0755-6.2146 3.9562-6.6588 10.531-2.4873 4.5512 2.8876 4.7584 3.1977 3.25 4.8645-2.2052 2.4368-2.0454 3.3327 1.1389 6.3827 7.7056 7.3806 17.231 7.4327 26.784.14646 3.0324-2.3129 3.8851-2.5364 6.0004-1.5726 2.9662 1.3515 3.0502 2.1535.55736 5.3226-3.4158 4.3425-11.711 8.0868-18.992 8.5726-5.8928.39322-7.265.10365-12.813-2.704zm4.213-21.47c-2.2-.67947-4-1.8238-4-2.5429s2.4207-2.0966 5.3794-3.0611c2.9587-.96453 6.5587-2.7044 8-3.8665 7.577-6.1089 11.056-4.9161 5.8032 1.9899-1.852 2.434-3.904 5.438-4.56 6.676-1.354 2.554-4.25 2.773-10.623.805zm25.25-2.6886c-4.9614-3.1705-5.7688-4.5382-3.25-5.5047 2.5952-.99585 1.6401-4.1003-2.25-7.3135-7.4867-6.184-16.605-6.3896-24.805-.55921-3.6624 2.6039-5.1988 3.1779-6.5582 2.4504-3.4786-1.8617-3.2799-3.2627 1.0019-7.0624 5.568-4.9412 12.679-7.2845 20.072-6.6142 7.3421.66576 12.382 3.3119 18.359 9.6384 4.0561 4.2936 5.2222 5.001 7.3593 4.4646 2.4348-.61110 2.5092-.49925 1.8037 2.7126-1.5399 7.011-3.1702 10.421-5.0781 10.623-1.048.109-4.043-1.166-6.655-2.836z"/>
</svg>
