<?xml version="1.0" encoding="UTF-8" standalone="no"?>
<svg id="svg16137" xmlns:rdf="http://www.w3.org/1999/02/22-rdf-syntax-ns#" xmlns="http://www.w3.org/2000/svg" height="64" viewBox="0 0 64 64" width="64" version="1.1" xmlns:cc="http://creativecommons.org/ns#" xmlns:xlink="http://www.w3.org/1999/xlink" xmlns:dc="http://purl.org/dc/elements/1.1/">
 <image id="image16145" width="64" xlink:href="/Users/Benoit/Projects/Voxeet/svg images/01-OK/icons/scheduled.png" height="64" y="0" x="0" preserveAspectRatio="none"/>
 <path id="path16687" fill="#96a550" d="m22.199 57.412c-16.643-8.294-20.254-29.452-7.247-42.46 15.8-15.799 42.763-6.2173 44.769 15.909 1.855 20.454-19.473 35.545-37.522 26.551zm21.836-7.816c5.7275-3.7903 8.2065-8.583 8.2763-16 .07063-7.508-2.4407-12.329-8.5167-16.35-5.6574-3.7439-14.931-3.7439-20.589 0-10.547 6.98-12.042 20.919-3.1915 29.769 2.1498 2.1498 5.3885 4.3605 7.1973 4.9127 5.0003 1.5266 12.581.47610 16.823-2.3311zm-16.285-13.258c-6.2811-1.9227-6.066-3.8133.65618-5.7675 2.9734-.86439 7.266-3.1254 9.5391-5.0246 3.6-3.008 7.055-3.822 7.055-1.662 0 .593-6.307 9.567-9.042 12.866-1.249 1.505-2.08 1.464-8.208-.412z"/>
</svg>
