<?xml version="1.0" encoding="UTF-8" standalone="no"?>
<svg id="svg18015" xmlns:rdf="http://www.w3.org/1999/02/22-rdf-syntax-ns#" xmlns="http://www.w3.org/2000/svg" height="64" viewBox="0 0 64 64" width="64" version="1.1" xmlns:cc="http://creativecommons.org/ns#" xmlns:xlink="http://www.w3.org/1999/xlink" xmlns:dc="http://purl.org/dc/elements/1.1/">
 <image id="image18023" width="64" xlink:href="/Users/Benoit/Projects/Voxeet/svg images/01-OK/icons/speakers.png" height="64" y="0" x="0" preserveAspectRatio="none"/>
 <path id="path18579" d="m6.4536 62.74c-.2660-.694-.3644-14.981-.2186-31.75l.2650-30.49 24.5-.26835c22.147-.24257 24.62-.10415 25.75 1.4412 1.606 2.1959 1.802 57.427.215 60.393-.980 1.831-2.336 1.934-25.532 1.934-18.781 0-24.609-.294-24.979-1.26zm32.78-9.658c2.746-2.453 3.266-3.615 3.266-7.294 0-5.761-2.491-9.405-7.444-10.889-7.541-2.26-14.056 2.753-14.056 10.813 0 3.5763.56970 5.0118 2.9231 7.3651 4.1479 4.1479 10.672 4.1501 15.311.0051zm-10.913-1.249c-6.784-3.348-4.01-13.833 3.659-13.833 2.862 0 7.02 4.35 7.02 7.344 0 5.094-6.0531 8.7724-10.679 6.4894zm9.012-30.649c4.956-5.476 1.475-13.584-5.832-13.584-2.721 0-4.275.6382-5.63 2.3108-2.484 3.0672-2.42 8.5402.129 11.089 2.607 2.607 9.0459 2.7117 11.333.18438zm-8.6659-3.2491c-1.9199-2.741-.99903-5.8139 1.9652-6.5579 4.5286-1.1366 7.1377 3.7096 3.7961 7.0512-2.1362 2.1362-4.0333 1.9738-5.7613-.49326z" fill="#fcf3d0"/>
 <path id="path18577" d="m7.2 62.8c-1.7141-1.714-1.7141-59.886 0-61.6.8660-.86601 7.814-1.2 24.965-1.2 22.472 0 23.821.10521 24.8 1.9343 1.4015 2.6188 1.4015 57.513 0 60.131-.979 1.83-2.328 1.935-24.8 1.935-17.151 0-24.099-.334-24.965-1.2zm29.443-7.4348c1.8948-.89916 4.1004-2.9018 4.9011-4.4503 5.291-10.232-5.789-21.018-15.624-15.209-5.9909 3.5389-7.2117 11.111-2.7132 16.83 3.5841 4.5564 7.8862 5.4622 13.436 2.8288zm-9.988-5.194c-3.545-3.917-1.425-10.438 3.822-11.755 6.6733-1.6749 10.968 6.996 5.9503 12.014-2.1485 2.1485-7.7272 2.0008-9.7721-.25881zm11.095-29.764c6.541-7.321-3.269-17.506-11.003-11.423-3.187 2.508-4.179 6.344-2.528 9.785 2.6825 5.5944 9.2819 6.3929 13.531 1.6372zm-9.0833-2.0733c-2.6023-2.6023 1.2347-8.0759 4.7228-6.7374 2.1274.81635 3.0214 4.2041 1.5707 5.952-1.2375 1.4911-5.1051 1.9737-6.2935.78534z" fill="#fbe8a7"/>
 <path id="path18575" d="m7.2 62.8c-1.7141-1.714-1.7141-59.886 0-61.6 1.2684-1.2684 45.055-1.8069 48.218-.59301 1.395.53531 1.582 4.2427 1.582 31.393s-.187 30.858-1.582 31.393c-3.163 1.214-46.95.675-48.218-.593zm29.789-7.294c4.162-2.152 6.011-5.33 6.011-10.329 0-3.644-.569-4.946-3.4-7.777-9.335-9.335-24.178 1.846-18.087 13.624 2.8099 5.4338 9.749 7.4431 15.476 4.4814zm-9.739-5.028c-2.828-2-3.061-7.434-.421-9.823 2.283-2.066 7.535-2.148 9.534-.149 6.007 6.007-2.129 14.91-9.113 9.972zm8.0657-27.641c3.2609-1.7368 4.617-3.9614 4.6525-7.6321.072-7.4607-9.3938-11.085-14.516-5.5585-3.3721 3.6386-3.2024 7.7576.47083 11.431 3.1199 3.1199 5.871 3.6354 9.3927 1.7597zm-6.1532-4.7151c-2.3265-1.4747-.99231-5.5833 1.9231-5.9222 3.4577-.40193 5.4315 1.9658 3.9486 4.7366-1.1502 2.1492-3.578 2.6394-5.8717 1.1855zm-8.48-3.31c-.31923-.79773-.55618-.56078-.60417.60417-.04342 1.0542.19293 1.6448.52522 1.3125.33229-.33229.36782-1.1948.07895-1.9167zm20.317-6.1896c0-.20766-.7875-.99516-1.75-1.75-1.586-1.2438-1.621-1.2085-.378.3776 1.307 1.6657 2.128 2.1955 2.128 1.3724zm-7.731-4.2783c-.67703-.27392-2.027-.29060-3-.037054-.973.2536-.419.4777 1.231.4981 1.65.02038 2.4461-.18706 1.769-.46099z" fill="#fbe79d"/>
 <path id="path18573" d="m7.2 62.8c-1.7141-1.714-1.7141-59.886 0-61.6 1.7034-1.7034 46.897-1.7034 48.6 0 1.7141 1.7141 1.7141 59.886 0 61.6-1.7034 1.7034-46.897 1.7034-48.6 0zm31.59-4.7048c4.6253-2.3747 7.3735-6.9468 7.456-12.405.13191-8.7254-5.7841-14.68-14.592-14.687-8.4956-.0066-13.766 4.9102-14.393 13.427-.86414 11.745 10.821 19.162 21.528 13.665zm15.168-30.477c.03915-3.6261-3.5196-11.39-4.6862-10.223-.275.275.45133 2.0393 1.6141 3.9206 2.438 3.945 2.657 8.11.614 11.684-.78602 1.375-1.4262 3.175-1.4226 4s.86876-.075 1.9226-2c1.0539-1.925 1.935-5.2469 1.9581-7.382zm-5.1512 3.8555c-.30789-.30789-.86705.24711-1.2426 1.2333-.54268 1.4252-.42782 1.5401.55980.55980.68342-.67833.99067-1.4852.68278-1.7931zm.88612-5.2045c-.254-.974-.478-.420-.498 1.23-.02038 1.65.18706 2.4461.46099 1.769.27392-.67703.29060-2.027.03705-3zm-13.227-.69025c7.9979-3.3417 8.779-15.02 1.3092-19.575-11.615-7.0815-23.895 7.9888-14.012 17.196 4.4026 4.1016 7.287 4.6417 12.703 2.3787zm11.896-3.08c-.317-.825-1.033-1.5-1.591-1.5-.586 0-.489.635.229 1.5.68469.825 1.4007 1.5 1.5911 1.5.19039 0 .08715-.675-.22943-1.5z" fill="#fada61"/>
 <path id="path18571" d="m7.2 62.8c-1.7141-1.714-1.7141-59.886 0-61.6 1.7034-1.7034 46.897-1.7034 48.6 0 1.7141 1.7141 1.7141 59.886 0 61.6-1.7034 1.7034-46.897 1.7034-48.6 0zm32.879-5.0739c4.475-3.0157 7.4559-10.064 6.4728-15.304-1.0028-5.3455-6.7774-10.946-12.237-11.869-5.5885-.94417-12.493 2.0502-15.284 6.6288-2.6528 4.3511-2.7176 12.256-.13252 16.177 4.5349 6.8784 14.428 8.9183 21.181 4.3674zm11.996-21.865c3.422-6.3941 2.9689-13.701-1.0765-17.362-2.978-2.695-3.5195-1.1225-.85462 2.4819 2.7399 3.7059 2.9557 9.6934.48526 13.464-1.879 2.866-2.007 3.555-.664 3.555.53065 0 1.4801-.96272 2.1098-2.1394zm-2.075-8.118c0-3.256-1.581-6.743-3.058-6.743-.54333 0-.25020 1.1258.65141 2.5019 1.5591 2.3794 1.5481 4.5085-.04621 8.9981-.70016 1.9716-.6878 1.9725.87140.05887.869-1.068 1.581-3.235 1.581-4.816zm-3.086.257c-.036-.989-.347-.819-.914.5-1.1813 2.7491-1.1813 4.328 0 2.5.53316-.825.94464-2.175.91440-3zm-9.925-2.494c4.162-2.152 6.011-5.33 6.011-10.329 0-3.644-.569-4.946-3.4-7.777-2.831-2.8311-4.133-3.4-7.777-3.4-4.999 0-8.177 1.8494-10.329 6.011-5.232 10.119 5.376 20.727 15.495 15.495z" fill="#f9ce2c"/>
 <path id="path18569" d="m7.75 62.92c-1.605-.935-1.75-3.499-1.75-30.935 0-28.552.0881-29.962 1.9343-30.95 2.8707-1.5364 46.314-1.3868 47.866.165 1.7141 1.7141 1.7141 59.886 0 61.6-1.5375 1.5375-45.428 1.647-48.05.11990zm32.25-4.79c8.874-6.439 9.327-17.47 1.006-24.471-8.664-7.291-22.588-2.012-24.497 9.288-2.111 12.497 13.387 22.515 23.491 15.183zm12.567-22.592c3.568-5.446 2.619-13.649-2.025-17.503-2.533-2.103-2.972-.397-.656 2.547 2.487 3.162 2.783 9.624.614 13.418-1.7049 2.9825-1.838 4-.52305 4 .53732 0 1.7028-1.1079 2.59-2.4619zm-3.1069-3.7884c1.6338-3.9102 1.0132-8.0114-1.5652-10.345-2.285-2.0679-2.3768-1.5575-.40102 2.2308 1.8406 3.5292 1.849 4.1837.09598 7.5436-1.215 2.33-1.165 3.821.128 3.821.21140 0 .99548-1.4626 1.7424-3.2503zm-2.46-2.727c0-2.591-1.037-5.023-2.142-5.023-.5178 0-0.446.90099.16239 2.0378.59982 1.1208.79244 2.9771.42805 4.1252-.44405 1.3991-.29744 1.8618.44460 1.4032.609-.376 1.107-1.521 1.107-2.543zm-7.821-4.655c5.35-4.766 5.677-12.358.744-17.291-5.19-5.1902-13.042-4.5547-17.755 1.4367-3.95 5.0223-2.098 13.771 3.595 16.977 3.504 1.974 10.606 1.38 13.416-1.123z" fill="#f8c70d"/>
 <path id="path18567" d="m7.5714 62.429c-1.3559-1.356-1.5714-5.529-1.5714-30.429s.2155-29.073 1.5714-30.429c1.3333-1.3329 4.9046-1.571 23.566-1.571 13.249 0 22.764.41161 23.929 1.0352 1.846.9880 1.934 2.3977 1.934 30.965s-.088 29.977-1.934 30.965c-1.165.623-10.68 1.035-23.929 1.035-18.661 0-22.232-.238-23.566-1.571zm31.229-2.885c3.5244-1.9 6.8879-5.5924 8.1727-8.9716 1.1779-3.0982 1.3567-7.9102.33201-8.9349-.38259-.38259-.78721-1.3197-.89916-2.0825-.29583-2.0156-6.5256-8.5989-7.5424-7.9704-.475.292-.863.070-.863-.496 0-.565-.675-.768-1.5-.452-.825.317-1.5.078-1.5-.531s-1.575-1.107-3.5-1.107-3.5.436-3.5.969c0 .53274-.675.70959-1.5.39301s-1.5-.0509-1.5.59040-.38114.93045-.84698.64255c-.96673-.59747-5.3547 3.8272-7.0308 7.0897-1.557 3.0307-1.4041 10.87.27544 14.118 1.438 2.779 5.603 7.077 5.603 5.781 0-.39953.70714-.01927 1.5714.84501 2.0191 2.0191 10.569 2.0886 14.228.11565zm14.211-23.794c1.3047-2.1398 1.9828-5.0316 1.9853-8.4655.0032-4.495-.42786-5.657-3.1203-8.4113l-3.124-3.1958-1.8538 2.4113c-2.019 2.627-2.367 3.912-1.059 3.912.46172 0 1.374 1.2375 2.0274 2.75l1.1879 2.75-1.8902-2.3938c-1.107-1.402-2.3815-2.0902-3.076-1.661-.90133.55706-.90746 1.0682-.02555 2.1308.64249.77415.87878 2.5194.52951 3.911-.473 1.889-.238 2.513.948 2.513.86794 0 1.3.45.96004 1-1.0809 1.7489.52195 3.2267 2.089 1.9261.891-.740 1.411-.788 1.411-.132 0 .572-.530 1.216-1.177 1.432-1.309.436-.254 2.774 1.251 2.774.525 0 1.847-1.462 2.937-3.25zm-1.816-8.25c.02038-1.65.24450-2.2039.49804-1.231.25354.97297.23687 2.323-.03705 3-.274.677-.481-.119-.461-1.769zm-2.528-5.75c-1.009-1.054-1.643-2.107-1.411-2.339.233-.233 1.242.482 2.244 1.589 2.348 2.5946 1.5866 3.2799-.83333.75zm-12.982 5.208c4.537-1.68 8.315-6.65 8.315-10.94 0-7.9663-5.038-13.018-12.984-13.018-3.3329 0-4.7259.64295-7.583 3.5-1.925 1.925-3.17 3.5-2.7667 3.5.404 0 .194.540-.466 1.2-3.5774 3.5774.75555 13.4 6.8346 15.494 4.3923 1.5128 5.2104 1.5378 8.6503.26412z" fill="#f8bc02"/>
</svg>
