
<svg width="60px" height="60px" viewBox="0 0 60 60" version="1.1" xmlns="http://www.w3.org/2000/svg" xmlns:xlink="http://www.w3.org/1999/xlink">
    <!-- Generator: Sketch 50.2 (55047) - http://www.bohemiancoding.com/sketch -->
    <desc>Created with Sketch.</desc>
    <defs></defs>
    <g id="Symbols" stroke="none" stroke-width="1" fill="none" fill-rule="evenodd">
        <g id="btn_hang-up">
            <g>
                <circle id="Oval-Copy-4" fill="#F54051" cx="30" cy="30" r="30"></circle>
                <path d="M12,29.982377 C12,28.4364594 13.1418899,26.6675601 14.5810511,26.0802672 C14.5810511,26.0802672 20.6122385,22.9431037 29.759299,22.9431037 C38.9063595,22.9431037 45.4113377,26.1242165 45.4113377,26.1242165 C46.8410164,26.7091022 48,28.4337458 48,29.982377 L48,32.3873152 C48,33.9332327 46.751717,35.0913774 45.2079552,34.9738046 L37.3955151,34.3788098 C35.8535113,34.261371 34.6034702,32.9128552 34.6034702,31.3641245 L34.6034702,29.8009415 C34.6034702,29.4115851 34.2839255,29.0959493 33.9127689,29.0959493 L25.690098,29.0959493 C25.3086342,29.0959493 24.9993967,29.4131142 24.9993967,29.8009415 L24.9993967,31.3641245 C24.9993967,32.9116503 23.7529599,34.2639965 22.2107,34.3850433 L14.7886967,34.9675711 C13.2485421,35.0884527 12,33.9359464 12,32.3873152 L12,29.982377 Z" id="Rectangle-Copy-9" fill="#FFFFFF"></path>
            </g>
        </g>
    </g>
</svg>
