<?xml version="1.0" encoding="UTF-8"?>
<svg width="256px" height="256px" viewBox="0 0 256 256" version="1.1" xmlns="http://www.w3.org/2000/svg" xmlns:xlink="http://www.w3.org/1999/xlink">
    <!-- Generator: Sketch 50.2 (55047) - http://www.bohemiancoding.com/sketch -->
    <title>Group</title>
    <desc>Created with Sketch.</desc>
    <defs>
        <linearGradient x1="226.290897%" y1="-132.71674%" x2="-103.980107%" y2="248.008826%" id="linearGradient-1">
            <stop stop-color="#FFFFFF" offset="0%"></stop>
            <stop stop-color="#B5B8C5" offset="100%"></stop>
        </linearGradient>
    </defs>
    <g id="Page-1" stroke="none" stroke-width="1" fill="none" fill-rule="evenodd">
        <g id="button" transform="translate(-128.000000, -128.000000)" fill="url(#linearGradient-1)" fill-rule="nonzero">
            <g id="Group" transform="translate(128.000000, 128.000000)">
                <path d="M102.406,128 C102.406,142.141 113.859,153.594 128,153.594 C142.141,153.594 153.594,142.141 153.594,128 C153.594,113.859 142.141,102.406 128,102.406 C113.859,102.406 102.406,113.859 102.406,128 Z" id="Shape"></path>
                <path d="M153.922,171.922 L168.094,193.219 C190.047,179.703 204.797,155.672 204.797,128 C204.797,85.594 170.422,51.203 128,51.203 C85.594,51.203 51.203,85.594 51.203,128 C51.203,155.672 65.953,179.703 87.891,193.219 L102.094,171.922 C87.016,163 76.797,146.781 76.797,128 C76.797,99.719 99.719,76.797 128,76.797 C156.281,76.797 179.203,99.719 179.203,128 C179.203,146.781 168.969,163.031 153.922,171.922 Z" id="Shape"></path>
                <path d="M128,0 C57.312,0 0,57.312 0,128 C0,173.422 23.828,213.094 59.5,235.797 L73.688,214.5 C44.891,196.375 25.594,164.547 25.594,128 C25.594,71.453 71.453,25.594 128,25.594 C184.547,25.594 230.406,71.453 230.406,128 C230.406,164.547 211.094,196.406 182.297,214.5 L196.5,235.797 C232.172,213.094 256,173.422 256,128 C256,57.312 198.703,0 128,0 Z" id="Shape"></path>
                <polygon id="Shape" points="80 256 176 256 128 176"></polygon>
            </g>
        </g>
    </g>
</svg>